<?xml version="1.0" standalone="no"?>
<!DOCTYPE svg PUBLIC "-//W3C//DTD SVG 20010904//EN"
 "http://www.w3.org/TR/2001/REC-SVG-20010904/DTD/svg10.dtd">
<svg version="1.0" xmlns="http://www.w3.org/2000/svg"
 width="288.000000pt" height="291.000000pt" viewBox="0 0 288.000000 291.000000"
 preserveAspectRatio="xMidYMid meet">

<g transform="translate(0.000000,291.000000) scale(0.100000,-0.100000)"
fill="#000000" stroke="none">
<path d="M292 2708 c-8 -8 -12 -52 -12 -134 l0 -121 -33 -6 c-59 -9 -107 -34
-107 -55 0 -33 26 -47 63 -35 18 6 42 14 55 18 l22 6 0 -231 0 -231 -23 6
c-12 4 -36 12 -54 18 -37 12 -63 -2 -63 -35 0 -21 48 -46 107 -55 l33 -6 0
-172 0 -172 -33 -6 c-59 -9 -107 -34 -107 -55 0 -33 26 -47 63 -35 18 6 42 14
55 18 l22 6 0 -229 0 -230 -32 8 c-18 5 -43 12 -56 16 -26 8 -52 -10 -52 -38
0 -21 39 -41 103 -53 l37 -7 0 -173 0 -172 -33 -6 c-59 -9 -107 -34 -107 -55
0 -37 23 -45 81 -28 29 9 54 16 56 16 2 0 3 -67 3 -149 0 -123 3 -151 16 -162
11 -9 20 -10 32 -2 14 9 17 33 20 162 3 174 -12 158 112 119 36 -12 71 -23 78
-24 9 -3 12 -34 12 -114 0 -116 9 -150 38 -150 36 0 42 21 42 142 0 87 3 119
13 122 12 3 150 46 175 54 9 3 12 -30 12 -146 0 -158 6 -178 47 -170 16 3 19
19 23 158 6 174 0 165 85 135 22 -7 59 -19 83 -25 l42 -11 0 -124 c0 -116 1
-124 20 -130 42 -13 50 9 50 137 0 86 3 120 12 122 24 6 163 49 176 53 9 4 12
-27 12 -137 0 -145 7 -180 38 -180 37 0 42 19 42 173 0 115 3 148 13 144 12
-4 151 -47 175 -53 9 -2 12 -36 12 -122 0 -128 8 -150 50 -137 19 6 20 14 20
130 l0 125 28 6 c15 3 52 14 82 24 103 36 94 46 100 -130 4 -139 7 -155 23
-158 41 -8 47 12 47 170 0 116 3 149 13 146 24 -8 162 -51 175 -54 9 -3 12
-35 12 -122 0 -121 6 -142 42 -142 29 0 38 34 38 150 0 80 3 111 13 114 6 1
41 12 77 24 124 39 109 55 112 -119 3 -129 6 -153 20 -162 12 -8 21 -7 32 2
13 11 16 39 16 162 0 82 1 149 3 149 2 0 27 -7 56 -16 41 -12 56 -13 67 -3 38
31 -2 72 -85 85 l-41 7 0 172 0 173 38 7 c63 12 102 32 102 53 0 28 -26 46
-52 38 -13 -4 -38 -11 -55 -16 l-33 -8 0 230 0 229 23 -6 c12 -4 36 -12 54
-18 37 -12 63 2 63 35 0 21 -48 46 -107 55 l-33 6 0 172 0 172 33 6 c59 9 107
34 107 55 0 33 -26 47 -63 35 -18 -6 -42 -14 -54 -18 l-23 -6 0 231 0 231 23
-6 c12 -4 36 -12 54 -18 37 -12 63 2 63 35 0 21 -48 46 -107 55 l-32 6 -3 125
c-3 104 -6 127 -20 135 -12 8 -21 7 -32 -2 -13 -11 -16 -36 -16 -137 0 -113
-2 -124 -18 -124 -10 0 -51 -11 -90 -25 -39 -14 -76 -25 -82 -25 -6 0 -10 52
-10 141 0 144 -7 179 -38 179 -37 0 -42 -19 -42 -172 0 -112 -3 -148 -12 -148
-7 0 -44 11 -83 25 -38 13 -78 25 -87 25 -16 0 -18 13 -18 124 0 130 -7 152
-47 144 -16 -3 -19 -18 -23 -132 l-5 -130 -45 -12 c-25 -6 -65 -19 -89 -28
-74 -27 -71 -34 -71 138 0 147 -1 155 -20 161 -44 14 -50 -7 -50 -166 0 -117
-3 -149 -13 -149 -8 0 -46 11 -85 25 -39 14 -78 25 -87 25 -13 0 -15 20 -15
123 0 127 -6 147 -42 147 -30 0 -38 -34 -38 -154 0 -97 -2 -116 -15 -116 -9 0
-48 -11 -87 -25 -39 -14 -77 -25 -85 -25 -10 0 -13 32 -13 149 0 159 -6 180
-50 166 -19 -6 -20 -14 -20 -161 0 -172 3 -165 -71 -138 -24 9 -64 22 -89 28
l-45 12 -5 130 c-4 114 -7 129 -23 132 -40 8 -47 -14 -47 -144 0 -111 -2 -124
-17 -124 -10 0 -49 -12 -88 -25 -38 -14 -76 -25 -82 -25 -10 0 -13 36 -13 148
0 153 -5 172 -42 172 -31 0 -38 -35 -38 -179 0 -89 -4 -141 -10 -141 -6 0 -43
11 -82 25 -39 14 -80 25 -90 25 -16 0 -18 11 -18 123 0 120 -6 147 -35 147 -6
0 -16 -5 -23 -12z m158 -358 c41 -13 81 -24 88 -26 18 -5 18 -343 0 -348 -13
-3 -151 -46 -175 -54 -10 -3 -13 47 -13 228 0 181 3 231 13 228 6 -2 46 -15
87 -28z m380 -200 l0 -229 -47 15 c-27 8 -72 21 -100 30 l-53 15 0 169 0 169
38 11 c20 5 64 19 97 29 33 11 61 20 63 20 1 1 2 -102 2 -229z m195 192 c17
-6 42 -13 58 -16 l27 -6 0 -170 0 -170 -27 -6 c-16 -3 -59 -16 -98 -29 -38
-13 -73 -21 -77 -19 -9 6 -11 438 -2 447 5 5 37 -3 119 -31z m353 -306 l-3
-115 -70 24 c-38 12 -82 26 -97 29 l-28 6 0 170 0 170 28 6 c15 3 59 17 97 29
l70 24 3 -115 c1 -62 1 -166 0 -228z m197 306 c17 -6 42 -13 58 -16 l27 -6 0
-170 0 -170 -27 -6 c-16 -3 -47 -12 -69 -20 -23 -8 -55 -19 -73 -24 l-31 -9 0
229 0 229 43 -13 c23 -8 56 -18 72 -24z m365 -192 c0 -120 -4 -221 -8 -224 -4
-2 -39 6 -77 19 -39 13 -82 26 -97 29 l-28 6 0 170 0 170 28 6 c15 3 58 16 97
29 38 13 73 21 77 19 4 -3 8 -104 8 -224z m218 184 l52 -15 0 -169 0 -169 -52
-15 c-29 -9 -74 -22 -100 -30 l-48 -15 0 229 0 229 48 -15 c26 -8 71 -21 100
-30z m332 -185 c0 -181 -3 -230 -12 -227 -25 8 -163 51 -175 54 -10 3 -13 46
-13 174 0 128 3 171 13 174 6 2 48 15 92 29 44 14 83 26 88 26 4 1 7 -103 7
-230z m-1940 -474 c0 -124 -4 -225 -8 -225 -5 0 -42 11 -82 25 -40 14 -82 25
-92 25 -17 0 -18 12 -18 175 0 163 1 175 18 175 10 0 50 11 88 25 38 13 75 24
82 25 9 0 12 -51 12 -225z m175 200 c39 -13 78 -25 88 -25 15 0 17 -15 17
-175 0 -168 -1 -175 -20 -175 -11 0 -49 -11 -86 -25 -36 -14 -73 -25 -80 -25
-12 0 -14 40 -14 225 0 173 3 225 13 225 6 0 44 -11 82 -25z m385 -200 c0
-172 -3 -225 -12 -225 -7 0 -49 12 -93 26 -44 14 -86 28 -92 30 -10 2 -13 45
-13 169 0 124 3 167 13 169 6 2 46 15 87 29 121 41 110 61 110 -198z m168 200
c39 -14 78 -25 87 -25 13 0 15 -25 15 -175 0 -160 -2 -175 -17 -175 -10 0 -49
-12 -88 -25 -38 -14 -76 -25 -82 -25 -10 0 -13 52 -13 225 0 180 3 225 13 225
8 0 46 -11 85 -25z m382 -200 c0 -173 -3 -225 -12 -225 -7 0 -44 11 -83 25
-38 13 -78 25 -87 25 -16 0 -18 15 -18 175 0 160 2 175 18 175 9 1 46 12 82
25 109 40 100 58 100 -200z m175 199 c44 -14 86 -28 93 -30 9 -2 12 -45 12
-169 0 -124 -3 -167 -12 -169 -7 -2 -49 -16 -93 -30 -44 -14 -86 -26 -93 -26
-9 0 -12 53 -12 225 0 172 3 225 12 225 7 0 49 -12 93 -26z m375 -199 c0 -185
-2 -225 -14 -225 -7 0 -44 11 -80 25 -37 14 -75 25 -86 25 -19 0 -20 7 -20
175 0 160 2 175 18 175 9 0 46 11 82 24 109 40 100 59 100 -199z m172 200 c39
-14 80 -25 90 -25 17 0 18 -12 18 -175 0 -163 -1 -175 -18 -175 -10 0 -52 -11
-92 -25 -40 -14 -77 -25 -82 -25 -4 0 -8 101 -8 225 0 146 4 225 10 225 6 0
43 -11 82 -25z m-1922 -477 c36 -12 71 -23 78 -24 9 -3 12 -45 12 -172 l0
-169 -81 -26 c-131 -44 -119 -63 -119 199 l0 225 23 -6 c12 -4 51 -16 87 -27z
m370 -197 l0 -230 -31 9 c-18 5 -50 16 -73 24 -22 8 -53 17 -68 20 l-28 6 0
171 c0 127 3 170 13 173 6 2 48 15 92 29 44 14 83 26 88 26 4 1 7 -102 7 -228z
m195 191 c17 -6 42 -13 58 -16 l27 -6 0 -170 0 -170 -27 -6 c-16 -3 -59 -16
-98 -29 -38 -13 -73 -21 -77 -19 -9 6 -11 438 -2 447 5 5 37 -3 119 -31z m353
-306 l-3 -115 -70 24 c-38 12 -82 26 -97 29 l-28 6 0 170 0 170 28 6 c15 3 59
17 97 29 l70 24 3 -115 c1 -62 1 -166 0 -228z m230 298 l52 -15 0 -170 0 -169
-27 -6 c-16 -3 -47 -12 -69 -20 -23 -8 -55 -19 -73 -24 l-31 -9 0 229 0 229
48 -15 c26 -8 71 -21 100 -30z m332 -184 c0 -120 -4 -221 -8 -224 -4 -2 -39 6
-77 19 -39 13 -82 26 -97 29 l-28 6 0 170 0 170 28 6 c15 3 58 16 97 29 38 13
73 21 77 19 4 -3 8 -104 8 -224z m170 200 c41 -13 81 -24 88 -26 9 -3 12 -46
12 -173 l0 -170 -52 -15 c-29 -9 -74 -22 -100 -30 l-48 -15 0 231 c0 180 3
229 13 226 6 -2 46 -15 87 -28z m380 -195 c0 -261 12 -242 -119 -198 l-81 26
0 169 c0 126 3 169 13 172 6 2 48 15 92 29 44 15 83 26 88 27 4 0 7 -101 7
-225z m-1940 -480 c0 -124 -4 -225 -8 -225 -5 0 -41 11 -80 25 -39 14 -81 25
-92 25 -19 0 -20 6 -20 175 0 160 2 175 18 175 9 0 46 11 82 24 109 40 100 59
100 -199z m175 200 c39 -13 78 -25 88 -25 15 0 17 -15 17 -175 0 -163 -1 -175
-18 -175 -10 0 -51 -11 -90 -25 -39 -14 -76 -25 -82 -25 -6 0 -10 79 -10 225
0 173 3 225 13 225 6 0 44 -11 82 -25z m385 -200 c0 -172 -3 -225 -12 -225 -7
0 -49 12 -93 26 -44 14 -86 28 -93 30 -10 3 -12 42 -10 170 l3 166 85 28 c133
44 120 65 120 -195z m168 200 c39 -14 78 -25 87 -25 13 0 15 -25 15 -175 0
-160 -2 -175 -17 -175 -10 0 -49 -12 -88 -25 -38 -14 -76 -25 -82 -25 -10 0
-13 52 -13 225 0 180 3 225 13 225 8 0 46 -11 85 -25z m382 -200 c0 -173 -3
-225 -12 -225 -7 0 -44 11 -83 25 -38 13 -78 25 -87 25 -16 0 -18 15 -18 175
0 160 2 175 18 175 9 1 46 12 82 25 109 40 100 58 100 -200z m185 196 l90 -29
3 -166 c2 -128 0 -167 -10 -170 -7 -2 -49 -16 -93 -30 -44 -14 -86 -26 -93
-26 -9 0 -12 53 -12 225 0 173 3 225 13 225 6 0 53 -13 102 -29z m365 -196 c0
-146 -4 -225 -10 -225 -6 0 -43 11 -82 25 -39 14 -80 25 -90 25 -17 0 -18 12
-18 175 0 160 2 175 18 175 9 0 46 11 82 24 109 40 100 59 100 -199z m175 200
c39 -13 78 -25 88 -25 15 0 17 -15 17 -175 0 -169 -1 -175 -20 -175 -11 0 -53
-11 -92 -25 -39 -14 -75 -25 -80 -25 -4 0 -8 101 -8 225 0 173 3 225 13 225 6
0 44 -11 82 -25z"/>
</g>
</svg>
