<?xml version="1.0" standalone="no"?>
<!DOCTYPE svg PUBLIC "-//W3C//DTD SVG 20010904//EN"
 "http://www.w3.org/TR/2001/REC-SVG-20010904/DTD/svg10.dtd">
<svg version="1.0" xmlns="http://www.w3.org/2000/svg"
 width="512.000000pt" height="512.000000pt" viewBox="0 0 512.000000 512.000000"
 preserveAspectRatio="xMidYMid meet">

<g transform="translate(0.000000,512.000000) scale(0.100000,-0.100000)"
fill="#000000" stroke="none">
<path d="M445 4468 c-27 -5 -86 -27 -131 -48 -152 -73 -274 -232 -303 -394
-15 -83 -15 -2849 0 -2932 38 -212 231 -405 443 -443 41 -8 510 -11 1461 -11
1585 0 1460 -6 1538 80 64 71 81 145 55 234 -16 55 -99 138 -154 154 -32 9
-370 12 -1433 12 l-1392 0 -24 25 -25 24 0 1186 c0 652 2 1185 5 1185 3 0 441
-355 973 -790 532 -434 983 -798 1002 -807 47 -24 153 -24 200 -1 19 10 114
82 210 161 1048 856 1762 1437 1765 1437 3 0 5 -246 5 -546 0 -400 3 -558 12
-588 16 -55 99 -138 154 -154 96 -28 182 -4 247 68 24 26 49 66 55 88 16 53
17 1530 1 1618 -17 97 -78 211 -154 287 -76 77 -190 138 -289 156 -77 14
-4147 13 -4221 -1z m3980 -477 c-6 -5 -427 -349 -937 -765 l-928 -756 -927
756 c-511 416 -932 761 -937 765 -6 5 820 9 1864 9 1079 0 1870 -4 1865 -9z"/>
<path d="M3680 1747 c-49 -16 -133 -102 -148 -153 -28 -94 -8 -169 63 -239 31
-32 65 -55 91 -63 30 -9 198 -12 636 -12 680 0 657 -2 731 80 90 100 90 220 0
320 -74 83 -50 80 -737 79 -408 -1 -612 -5 -636 -12z"/>
</g>
</svg>
