<?xml version="1.0" standalone="no"?>
<!DOCTYPE svg PUBLIC "-//W3C//DTD SVG 20010904//EN"
 "http://www.w3.org/TR/2001/REC-SVG-20010904/DTD/svg10.dtd">
<svg version="1.0" xmlns="http://www.w3.org/2000/svg"
 width="389.000000pt" height="385.000000pt" viewBox="0 0 389.000000 385.000000"
 preserveAspectRatio="xMidYMid meet">

<g transform="translate(0.000000,385.000000) scale(0.100000,-0.100000)"
fill="#000000" stroke="none">
<path d="M1854 3658 c-3 -4 -16 -8 -29 -8 -13 0 -27 -5 -30 -10 -4 -6 -18 -10
-33 -10 -96 1 -132 -6 -147 -28 -9 -12 -25 -22 -36 -22 -12 0 -50 -28 -86 -62
-60 -58 -64 -66 -59 -97 3 -21 0 -41 -10 -56 -9 -14 -14 -45 -13 -87 1 -60
-13 -127 -34 -155 -5 -7 -6 -25 -2 -41 5 -24 2 -30 -20 -40 -39 -18 -53 -15
-80 16 -23 26 -25 26 -52 11 -25 -14 -28 -20 -25 -61 2 -42 0 -46 -22 -52 -16
-4 -28 -16 -32 -32 -3 -13 -19 -31 -35 -40 -16 -8 -29 -20 -29 -28 0 -7 -11
-18 -25 -24 -14 -6 -25 -19 -25 -27 0 -11 -6 -14 -23 -10 -15 4 -32 -1 -47
-13 -23 -19 -24 -22 -12 -56 13 -36 9 -76 -8 -76 -5 0 -12 -9 -15 -20 -4 -11
-22 -35 -41 -54 -21 -20 -35 -45 -38 -64 -2 -20 -15 -41 -35 -57 -18 -16 -31
-36 -31 -50 0 -16 -13 -34 -36 -51 -28 -22 -35 -33 -33 -58 3 -41 -10 -83 -25
-89 -7 -3 -21 -29 -30 -59 -9 -29 -23 -66 -31 -83 -56 -123 -63 -144 -63 -185
1 -26 -3 -44 -9 -43 -9 2 -61 -142 -79 -219 -3 -15 -15 -30 -25 -33 -24 -8
-34 -47 -20 -73 15 -29 15 -30 -20 -62 -27 -24 -30 -32 -24 -57 15 -53 1 -181
-22 -190 -8 -3 -13 -19 -13 -42 2 -96 -9 -223 -21 -237 -7 -9 -14 -45 -15 -82
-2 -56 2 -74 27 -120 19 -36 29 -70 29 -97 0 -64 25 -81 160 -109 79 -17 120
-21 132 -15 14 7 18 6 18 -6 0 -20 77 -21 106 0 12 8 27 36 34 62 11 45 115
380 145 468 7 22 39 132 70 245 31 113 65 230 77 260 32 87 51 131 55 126 2
-2 10 -93 18 -202 8 -110 21 -278 29 -374 9 -96 20 -244 25 -329 9 -129 13
-157 29 -175 13 -14 21 -42 25 -85 4 -51 11 -69 31 -90 l26 -26 580 -3 579 -2
33 29 c31 28 33 33 34 104 1 82 6 97 33 97 16 0 19 13 25 103 4 56 15 192 26
302 10 110 26 290 35 400 9 110 20 211 24 225 7 23 8 22 15 -15 4 -22 18 -78
31 -125 12 -47 35 -130 50 -185 14 -55 49 -170 77 -255 43 -131 56 -160 84
-185 35 -32 42 -53 23 -72 -14 -14 32 -134 65 -171 12 -13 30 -51 41 -84 13
-41 29 -68 48 -82 l28 -21 166 42 c186 47 213 63 213 122 0 20 -6 56 -14 81
-10 33 -11 60 -4 100 17 102 17 133 -3 168 -11 18 -19 50 -19 70 0 20 -7 73
-14 117 -14 77 -14 81 6 99 13 12 18 26 14 40 -3 11 -6 33 -6 47 0 17 -8 29
-24 37 -31 14 -43 80 -21 122 16 31 7 70 -15 70 -6 0 -10 11 -10 24 0 34 -10
56 -25 56 -8 0 -15 22 -20 64 -4 38 -13 70 -21 77 -10 8 -13 21 -9 36 4 18 -2
32 -26 55 -26 26 -29 35 -20 50 17 27 13 53 -9 73 -22 20 -26 56 -8 84 9 15 8
24 -5 45 -10 14 -26 26 -37 26 -23 0 -32 14 -40 60 -3 22 -13 38 -26 44 -33
15 -56 66 -60 129 -3 63 -16 87 -45 87 -11 0 -19 7 -19 16 0 9 -10 38 -22 66
-18 38 -29 51 -50 55 -32 6 -32 6 -16 49 10 29 9 36 -7 54 -10 11 -30 20 -45
20 -17 0 -30 7 -34 18 -3 9 -10 24 -15 32 -5 8 -12 27 -15 42 -4 15 -15 29
-25 33 -11 3 -21 16 -23 28 -2 12 -13 26 -26 32 -12 5 -25 18 -28 28 -3 10
-20 25 -38 32 -18 8 -38 21 -46 29 -7 9 -22 16 -34 16 -12 0 -27 10 -34 21
-11 17 -20 20 -47 16 -52 -8 -74 1 -74 32 0 82 -4 113 -26 234 -14 72 -25 144
-25 159 0 21 -10 32 -57 58 -31 18 -66 43 -76 56 -13 17 -29 25 -50 25 -101 0
-227 21 -236 38 -7 12 -27 16 -91 17 -44 0 -83 -3 -86 -8z m327 -146 c96 -29
156 -57 168 -80 6 -12 11 -101 12 -225 1 -224 4 -239 55 -243 61 -5 139 -25
180 -46 55 -27 94 -65 152 -148 26 -36 49 -67 52 -70 4 -3 15 -20 25 -37 11
-18 23 -33 27 -33 5 0 13 -12 18 -26 6 -14 31 -60 56 -101 91 -150 124 -214
219 -428 26 -59 75 -180 75 -186 0 -4 8 -24 17 -45 9 -22 24 -66 33 -99 90
-325 116 -446 140 -630 6 -49 16 -118 21 -153 5 -35 9 -105 9 -155 -1 -51 4
-116 10 -145 7 -29 10 -55 8 -56 -1 -1 -50 -15 -108 -30 -58 -14 -114 -29
-126 -32 -18 -5 -23 2 -38 60 -12 43 -25 70 -40 80 -14 8 -35 45 -52 90 -28
74 -37 86 -49 66 -9 -15 -35 0 -35 20 0 10 -6 20 -12 23 -16 5 7 37 27 37 8 0
-6 54 -42 162 -30 90 -79 258 -108 373 -30 116 -63 238 -74 273 -23 70 -64
135 -99 153 -19 11 -26 10 -42 -7 -16 -16 -22 -47 -35 -179 -31 -333 -56 -615
-66 -745 -19 -260 -25 -299 -54 -322 -22 -17 -25 -26 -25 -89 l0 -69 -545 0
-545 0 0 75 c0 67 -2 76 -23 90 -22 14 -24 24 -41 247 -9 128 -21 283 -26 343
-15 175 -29 348 -40 515 -14 203 -16 215 -47 229 -36 17 -69 -7 -77 -56 -9
-48 -46 -165 -86 -268 -16 -44 -51 -152 -76 -240 -25 -88 -50 -173 -55 -190
-5 -16 -32 -106 -60 -200 -27 -93 -65 -215 -84 -270 -18 -55 -36 -115 -40
-133 -7 -34 -7 -34 -53 -27 -26 3 -83 14 -127 24 l-80 17 -3 50 c-2 36 -9 53
-24 65 -28 22 -26 64 18 379 71 508 270 1033 555 1464 33 48 59 91 59 95 0 4
8 14 18 23 9 9 37 44 62 78 54 74 134 144 175 154 17 4 62 13 100 19 39 7 76
16 83 20 15 10 16 69 1 84 -8 8 -8 27 1 68 6 31 11 87 9 123 -6 139 -2 162 34
196 33 31 123 66 217 86 78 16 326 5 401 -18z"/>
<path d="M2124 2936 c-39 -17 -46 -28 -47 -71 -1 -35 33 -85 58 -85 15 0 141
-261 156 -323 21 -86 6 -176 -60 -377 -34 -101 -61 -194 -61 -207 0 -21 25
-43 49 -43 24 0 44 42 100 213 107 324 104 392 -23 647 -50 101 -62 132 -58
161 3 27 -2 42 -20 62 -30 33 -56 39 -94 23z"/>
<path d="M1681 2919 c-17 -16 -22 -30 -20 -67 1 -33 -6 -65 -26 -107 -112
-243 -119 -265 -118 -390 0 -106 7 -133 93 -353 33 -85 62 -118 94 -106 39 15
37 38 -14 171 -28 70 -55 139 -61 153 -17 39 -23 183 -10 237 14 57 131 316
145 322 29 12 56 53 56 84 0 68 -88 104 -139 56z"/>
<path d="M2244 1545 c-21 -33 -30 -165 -15 -237 25 -116 103 -234 198 -297 68
-45 113 -40 113 14 0 8 -26 32 -59 54 -70 48 -106 89 -138 157 -36 78 -45 147
-32 232 8 56 8 77 -1 88 -19 21 -48 17 -66 -11z"/>
<path d="M1602 1548 c-8 -8 -12 -46 -12 -103 0 -176 -63 -280 -227 -376 -39
-22 -45 -62 -13 -79 50 -27 223 108 274 213 41 84 59 172 53 255 -3 40 -11 80
-17 88 -15 17 -42 18 -58 2z"/>
</g>
</svg>
