<svg version="1.1" id="Layer_1" xmlns="http://www.w3.org/2000/svg" xmlns:xlink="http://www.w3.org/1999/xlink" x="0px" y="0px"
	 width="100%" viewBox="0 0 288 256" enable-background="new 0 0 288 256" xml:space="preserve">
<path fill="#000000" opacity="1.000000" stroke="none" 
	d="
M81.200348,134.041473 
	C81.824524,132.642410 82.512428,131.592377 82.633430,130.480637 
	C84.568756,112.698303 85.406776,94.952179 79.731087,77.601624 
	C78.780037,74.694244 77.974380,71.540237 75.040520,69.471825 
	C71.878830,71.517197 70.297256,74.721443 68.160942,77.401550 
	C66.217789,79.839317 63.921326,81.841690 61.048939,79.595001 
	C58.222759,77.384445 59.483944,74.547775 61.329884,72.082390 
	C68.857468,62.028740 76.463318,52.068836 89.064842,47.813892 
	C91.578148,46.965267 92.584846,45.219093 92.837418,42.558018 
	C93.133522,39.438293 93.914589,36.354446 94.624245,33.287186 
	C95.242935,30.613138 96.518417,27.885866 98.846474,26.700377 
	C106.709732,22.696276 114.196297,17.048481 123.325249,16.828434 
	C141.810211,16.382862 160.313446,16.694963 178.809158,16.695267 
	C179.142395,16.695272 179.489487,16.642414 179.806824,16.715431 
	C188.218491,18.650871 196.057571,22.225510 203.183517,26.828827 
	C208.488281,30.255667 208.315277,36.981964 209.180527,42.686123 
	C209.542618,45.073044 210.182114,46.824593 212.551804,47.648205 
	C226.489990,52.492611 234.790619,63.641846 242.757339,75.011482 
	C263.282104,104.303154 274.865234,136.825516 277.399506,172.531769 
	C278.058777,181.820404 278.669281,191.112518 279.287872,200.403976 
	C279.354187,201.400177 279.538910,202.456314 279.305054,203.393951 
	C277.431366,210.905457 273.667999,217.805283 272.504211,225.613083 
	C272.119843,228.191574 268.702637,229.183868 265.902069,229.221756 
	C259.404999,229.309662 252.901566,229.403320 246.409210,229.209763 
	C241.489929,229.063110 238.275055,226.133148 238.016373,221.032761 
	C237.805420,216.873047 236.973236,213.548599 233.932617,210.357971 
	C230.843430,207.116379 231.203217,202.301086 230.692764,198.032730 
	C228.934753,183.332047 226.717316,168.741394 220.340958,154.897247 
	C220.340958,157.932358 220.304413,160.967972 220.347031,164.002472 
	C220.581116,180.675308 219.984314,197.270599 216.380676,213.647141 
	C215.254822,218.763474 213.245270,223.166183 208.438889,225.705719 
	C206.206604,226.885178 206.268433,228.773270 206.171906,230.794144 
	C205.732330,239.996109 202.310684,243.309586 193.147919,243.315964 
	C164.821182,243.335678 136.494385,243.333969 108.167648,243.306870 
	C99.682976,243.298752 96.167252,239.824570 95.855026,231.154343 
	C95.768570,228.753433 95.740372,226.611343 93.128349,225.283615 
	C88.591660,222.977554 86.719612,218.776520 85.683792,214.034271 
	C83.118851,202.291290 81.925064,190.394150 81.707230,178.400558 
	C81.565842,170.616180 81.680603,162.827118 81.352890,154.995926 
	C76.330368,166.288055 73.838043,178.187973 72.299393,190.337006 
	C71.672905,195.283707 71.817734,200.533783 70.121078,205.090881 
	C67.598083,211.867493 63.812046,218.086868 62.517769,225.452011 
	C61.987614,228.468918 58.196354,229.265366 55.022278,229.274811 
	C49.190372,229.292145 43.357277,229.356140 37.526752,229.266022 
	C31.173079,229.167831 27.904037,226.089432 27.820269,219.783340 
	C27.772377,216.178146 27.563009,212.934555 24.672600,210.246613 
	C23.223301,208.898788 22.654629,206.815750 22.696066,204.730072 
	C23.384399,170.083206 26.765287,135.954224 42.278275,104.202492 
	C44.616291,99.417084 47.154224,94.726387 49.702606,90.047943 
	C50.979275,87.704185 53.100075,86.608223 55.576145,87.897552 
	C58.313934,89.323158 58.253059,91.683075 57.101261,94.335396 
	C55.182819,98.753128 51.458981,102.311401 52.840179,108.162262 
	C54.794117,116.439247 58.557842,123.356232 64.683655,129.099167 
	C67.741760,131.966125 71.351913,134.056213 74.840073,136.335434 
	C77.908226,138.340225 79.717583,137.423523 81.200348,134.041473 
M179.629333,190.028183 
	C176.409851,194.100235 171.701233,192.705048 167.588623,193.067398 
	C164.393570,193.348907 163.193527,194.417633 163.293777,197.626419 
	C163.470612,203.285675 163.396744,208.955414 163.312012,214.619034 
	C163.273422,217.198486 163.971298,218.729416 166.924698,218.710892 
	C178.420517,218.638748 189.916977,218.674438 201.413208,218.660294 
	C204.456665,218.656555 206.601181,217.158035 207.383499,214.287979 
	C209.178482,207.702927 210.222931,200.977997 210.706909,194.159012 
	C210.933624,190.964554 209.442383,189.997574 206.529373,190.295273 
	C202.725723,190.684006 198.915543,191.015823 195.103638,191.314438 
	C192.131378,191.547272 189.532547,190.825409 189.434311,187.309952 
	C189.336075,183.794617 192.124863,183.085342 194.909302,182.775543 
	C198.710419,182.352631 202.517502,181.829987 206.332321,181.725418 
	C210.375305,181.614594 211.847870,179.870575 211.754303,175.837585 
	C211.537918,166.512115 211.390839,157.168076 211.757477,147.852890 
	C211.953766,142.865875 209.947067,141.702286 205.587387,142.376755 
	C193.227097,144.289001 180.726013,144.480347 168.272995,145.109360 
	C164.228714,145.313644 163.167114,146.731552 163.271637,150.510468 
	C163.492691,158.501770 163.333603,166.503525 163.333984,174.500992 
	C163.334457,184.270966 163.334961,184.218475 172.786301,184.027100 
	C176.400070,183.953918 180.079865,184.100494 179.629333,190.028183 
M136.812927,145.456802 
	C123.064079,144.530609 109.274269,144.138229 95.589920,142.372925 
	C91.827301,141.887543 90.146202,143.025009 90.253304,147.197601 
	C90.496483,156.672058 90.466072,166.161896 90.217476,175.636841 
	C90.105423,179.907211 91.703217,181.287140 95.893906,181.796204 
	C108.448013,183.321213 121.095161,183.294571 133.651993,184.545212 
	C137.331696,184.911713 138.776794,183.719055 138.714325,179.923706 
	C138.550095,169.946198 138.669418,159.964188 138.647797,149.984024 
	C138.644623,148.520111 138.921646,146.945572 136.812927,145.456802 
M166.059631,97.347397 
	C163.507858,97.505745 163.337723,99.297844 163.339249,101.255089 
	C163.347458,111.740791 163.380280,122.226799 163.308197,132.712036 
	C163.289841,135.380417 164.158325,136.842926 167.036835,136.641220 
	C180.627243,135.688843 194.261307,135.345093 207.799255,133.651917 
	C210.257477,133.344467 210.772415,131.891281 210.497635,129.801208 
	C209.150269,119.552040 208.900635,109.266777 209.683319,98.969803 
	C209.978363,95.088135 208.415451,93.959755 204.714203,94.499954 
	C192.195679,96.327065 179.557251,96.668633 166.059631,97.347397 
M100.090630,134.324707 
	C111.183907,135.092621 122.281715,135.801956 133.367950,136.660812 
	C137.151627,136.953918 138.812805,135.745758 138.726334,131.683380 
	C138.521194,122.047127 138.442200,112.396179 138.761200,102.766045 
	C138.912186,98.208641 137.126740,97.315392 132.971390,97.136589 
	C121.205040,96.630264 109.434128,95.855873 97.723000,94.632118 
	C93.299263,94.169853 91.904808,95.338135 92.314606,99.526413 
	C93.304977,109.648361 92.774879,119.741302 91.521088,129.807465 
	C91.207237,132.327347 92.219025,133.565887 94.768829,133.665421 
	C96.257774,133.723541 97.740082,133.951889 100.090630,134.324707 
M212.023849,81.669319 
	C213.542877,75.852020 215.414062,70.147102 218.812042,65.138168 
	C220.612991,62.483410 219.864914,60.895630 217.389709,59.546471 
	C211.682114,56.435425 205.824860,53.518719 199.567612,51.849388 
	C194.592911,50.522213 189.401215,50.785538 184.290192,52.208252 
	C179.187531,53.628647 176.712021,56.482773 177.337296,61.961170 
	C177.655975,64.753250 177.377121,67.612640 177.382843,70.441574 
	C177.388550,73.264259 177.141541,76.108353 173.470367,76.187195 
	C169.626175,76.269753 169.115036,73.282639 168.861679,70.323135 
	C168.602341,67.293709 169.306381,64.154884 168.330170,61.151340 
	C164.315659,61.676727 163.194351,63.782833 163.282135,67.117165 
	C163.426636,72.605034 163.542267,78.110329 163.260513,83.587212 
	C163.055603,87.570648 164.495209,88.967697 168.420258,88.685753 
	C181.675430,87.733650 194.968643,87.321899 208.177597,85.705101 
	C210.338196,85.440636 211.587967,84.627136 212.023849,81.669319 
M117.215836,52.151695 
	C103.406013,48.437809 92.682495,55.250561 81.294609,61.967915 
	C85.918610,68.559715 88.386925,75.231697 90.081032,82.200462 
	C90.572624,84.222649 91.529091,85.374870 93.698189,85.640335 
	C107.055168,87.275040 120.489136,87.843201 133.905182,88.676834 
	C137.244812,88.884354 138.807861,87.714645 138.702011,84.155922 
	C138.529129,78.343147 138.546768,72.518456 138.700729,66.704529 
	C138.794708,63.155407 137.086014,61.644245 133.746368,61.125202 
	C132.628540,64.777855 133.546738,68.305916 133.014954,71.716087 
	C132.625870,74.211044 131.518600,76.272926 128.612381,76.210869 
	C125.651718,76.147636 124.708954,74.117744 124.688225,71.481987 
	C124.663391,68.323845 124.342964,65.125610 124.727386,62.016048 
	C125.396805,56.601151 123.402420,53.384117 117.215836,52.151695 
M236.873779,81.599556 
	C233.749924,77.411018 231.136276,72.784485 226.937897,69.263420 
	C223.582474,72.543739 222.482056,76.421417 221.368286,80.201660 
	C216.813095,95.662308 217.835327,111.479630 218.715118,127.254242 
	C218.859711,129.846848 219.641418,132.418274 221.079895,134.795090 
	C222.552460,137.228180 223.996460,138.103348 226.703232,136.624023 
	C236.866791,131.069366 244.557510,123.437622 248.185196,112.135780 
	C249.842377,106.972946 250.005005,102.211433 246.729752,97.457947 
	C243.338165,92.535622 240.417511,87.288818 236.873779,81.599556 
M261.064026,131.331329 
	C259.378723,126.975861 258.669678,122.206001 255.536987,117.666077 
	C250.262482,130.332779 241.322952,138.724121 229.961395,144.710388 
	C227.757004,145.871872 227.230896,147.227341 228.224091,149.521851 
	C231.200684,156.398514 233.199661,163.608337 234.968628,170.864395 
	C235.674042,173.757812 237.408279,174.692123 239.991623,174.504684 
	C248.184662,173.910233 256.047668,172.359451 263.172058,167.772415 
	C267.127594,165.225647 268.371735,162.145203 267.463348,157.727493 
	C265.691895,149.111984 263.948120,140.493896 261.064026,131.331329 
M50.277649,125.132919 
	C49.011665,122.845886 47.745678,120.558846 46.448772,118.215958 
	C45.914715,118.623459 45.539864,118.760223 45.437172,119.009224 
	C40.089378,131.976578 36.811192,145.514130 34.374413,159.282852 
	C33.784172,162.617966 35.099712,164.944717 37.794258,166.937637 
	C45.378895,172.547318 54.133198,174.017075 63.203175,174.559586 
	C65.836617,174.717102 66.392624,173.033188 66.992821,170.910568 
	C68.845375,164.358871 70.583580,157.737640 73.052330,151.411163 
	C74.563522,147.538498 74.236923,145.670151 70.335930,143.678421 
	C62.223171,139.536301 55.445835,133.668137 50.277649,125.132919 
M102.853294,218.695541 
	C113.162445,218.694778 123.473297,218.587021 133.779831,218.750549 
	C137.453003,218.808838 138.858948,217.503479 138.712585,213.813583 
	C138.501877,208.501099 138.508759,203.168167 138.714539,197.855240 
	C138.847351,194.426056 137.572937,193.200500 134.144394,193.053925 
	C125.687988,192.692429 117.252678,191.665619 108.797546,191.505692 
	C103.051605,191.396988 97.387924,189.679611 91.343079,190.450684 
	C91.063835,198.086823 92.684334,205.174850 94.056992,212.322952 
	C94.939240,216.917236 97.358955,218.994720 102.853294,218.695541 
M154.703842,130.500046 
	C154.698853,110.183289 154.674286,89.866486 154.712463,69.549812 
	C154.717499,66.864624 154.241974,65.018013 150.937073,65.074760 
	C148.032806,65.124634 147.279419,66.558990 147.281067,69.165794 
	C147.311737,117.626228 147.300278,166.086700 147.297958,214.547150 
	C147.297943,214.713669 147.314240,214.881119 147.301895,215.046570 
	C147.083969,217.966873 148.679489,218.725525 151.301422,218.714752 
	C155.327255,218.698227 154.676025,215.834183 154.678482,213.433197 
	C154.706482,186.122177 154.700348,158.811111 154.703842,130.500046 
M60.427273,182.979691 
	C50.907433,182.387665 41.932838,179.805161 32.706120,174.415176 
	C32.222000,184.932831 31.683731,194.343140 31.422377,203.761139 
	C31.348431,206.425812 33.678486,206.660980 35.797039,206.660187 
	C42.791935,206.657593 49.788574,206.570404 56.780968,206.703461 
	C60.085571,206.766312 61.703865,205.324844 62.109947,202.152634 
	C62.805511,196.719101 63.536880,191.289749 64.306252,185.866180 
	C64.663025,183.351151 62.977341,183.209259 60.427273,182.979691 
M244.914612,182.449295 
	C243.266464,182.680557 241.621811,182.941620 239.969162,183.134384 
	C238.442719,183.312424 237.375656,183.929703 237.610291,185.651901 
	C238.393692,191.401428 239.226471,197.144257 240.043442,202.889206 
	C240.403427,205.420822 241.794678,206.672012 244.424316,206.657547 
	C251.750641,206.617264 259.077393,206.662369 266.403961,206.651886 
	C268.337189,206.649109 270.398285,206.318893 270.550659,203.993118 
	C271.180847,194.374466 269.303894,184.919968 269.372101,174.538666 
	C261.163239,178.686417 253.936844,182.047318 244.914612,182.449295 
M119.509933,234.688766 
	C144.003311,234.686676 168.496674,234.676956 192.990036,234.693924 
	C195.546783,234.695694 197.609253,234.441696 197.675827,231.059967 
	C197.733231,228.144638 196.416351,227.321960 193.748978,227.325592 
	C165.256821,227.364426 136.764603,227.357422 108.272446,227.319550 
	C105.627670,227.316040 104.259346,228.155289 104.327904,231.070908 
	C104.397560,234.033783 105.999962,234.723572 108.519173,234.685501 
	C111.850723,234.635147 115.183754,234.682602 119.509933,234.688766 
M156.992767,44.510380 
	C163.672470,36.834126 171.993774,31.208025 181.596100,25.627434 
	C161.019318,25.627434 141.600876,25.627434 120.632156,25.627434 
	C133.031158,32.951385 143.285126,40.653721 150.841187,51.952774 
	C153.157440,49.123821 154.834137,47.075989 156.992767,44.510380 
M126.640320,39.871166 
	C123.115601,37.669651 119.578552,35.487568 116.069771,33.260941 
	C112.808731,31.191540 109.379074,29.926113 105.824600,32.256813 
	C102.195633,34.636345 101.818275,38.342381 102.176949,42.587902 
	C109.250862,42.576992 116.193863,41.805042 122.553238,44.798225 
	C128.743088,47.711613 134.766998,50.977539 140.863754,54.088680 
	C137.103073,48.555241 132.654449,43.914646 126.640320,39.871166 
M192.380341,31.060572 
	C184.361298,32.464211 178.506042,37.850903 172.150375,42.233723 
	C168.061264,45.053547 164.740219,48.757824 161.990845,52.916698 
	C168.339691,50.376915 174.186478,47.259315 180.194870,44.492668 
	C186.385208,41.642250 193.179764,42.805897 199.684235,42.544369 
	C199.834259,34.661758 198.818405,32.957527 192.380341,31.060572 
M53.657017,220.563629 
	C55.572678,220.099457 55.798809,218.690079 55.463856,217.106445 
	C55.108944,215.428421 53.690426,215.354462 52.346504,215.345169 
	C48.223057,215.316681 44.099369,215.321304 39.975769,215.316818 
	C37.992691,215.314651 36.273388,215.628143 36.425922,218.238953 
	C36.562542,220.577332 38.241112,220.677368 39.960812,220.677948 
	C44.249352,220.679413 48.537903,220.655548 53.657017,220.563629 
M246.541885,216.830856 
	C246.279007,218.584564 246.243591,220.467361 248.553894,220.546234 
	C253.509567,220.715363 258.475891,220.641754 263.436249,220.565033 
	C265.091675,220.539444 265.626038,219.349060 265.581787,217.825745 
	C265.542938,216.488480 264.936035,215.420746 263.584961,215.453323 
	C258.028473,215.587326 252.410004,214.378052 246.541885,216.830856 
z"/>
</svg>