<?xml version="1.0" standalone="no"?>
<!DOCTYPE svg PUBLIC "-//W3C//DTD SVG 20010904//EN"
 "http://www.w3.org/TR/2001/REC-SVG-20010904/DTD/svg10.dtd">
<svg version="1.0" xmlns="http://www.w3.org/2000/svg"
 width="278.000000pt" height="309.000000pt" viewBox="0 0 278.000000 309.000000"
 preserveAspectRatio="xMidYMid meet">

<g transform="translate(0.000000,309.000000) scale(0.100000,-0.100000)"
fill="#000000" stroke="none">
<path d="M713 2818 c-12 -6 -25 -18 -28 -27 -4 -9 -18 -133 -32 -276 -25 -248
-26 -303 -34 -1145 -4 -487 -11 -921 -14 -966 -6 -70 -4 -83 13 -105 l20 -24
280 -3 280 -3 28 24 c27 23 28 27 30 138 2 103 137 1176 149 1188 3 2 7 2 9 0
12 -12 148 -1086 150 -1188 2 -111 3 -115 30 -138 l28 -24 280 3 280 3 20 24
c17 22 19 34 13 105 -4 45 -10 398 -13 786 l-7 705 -24 3 c-13 2 -28 -2 -32
-10 -5 -7 -9 -318 -9 -690 l0 -678 -245 0 c-188 0 -247 3 -250 13 -2 6 -42
297 -88 646 -89 670 -87 661 -137 661 -50 0 -48 9 -137 -661 -46 -349 -86
-640 -88 -646 -3 -10 -41 -13 -143 -13 -94 0 -142 -4 -150 -12 -16 -16 -15
-23 4 -42 12 -13 41 -16 155 -16 l139 0 0 -32 c0 -18 -3 -43 -6 -55 l-6 -23
-254 0 -254 0 0 55 0 55 44 0 c47 0 70 17 64 47 -2 13 -14 19 -46 21 l-42 3 0
788 c0 434 3 808 6 833 l6 44 66 18 c152 41 242 123 267 246 14 73 9 69 88 63
44 -3 79 -12 90 -21 11 -10 46 -18 90 -21 l72 -6 5 -235 5 -235 25 0 c22 0 25
5 28 43 3 38 7 45 35 57 101 42 126 95 127 266 0 89 4 129 13 136 6 6 44 13
84 16 79 6 74 10 88 -63 25 -123 115 -205 268 -246 l66 -18 6 -65 c3 -36 7
-75 8 -86 2 -24 39 -32 56 -11 9 11 10 51 1 178 -14 214 -47 569 -55 589 -12
31 -48 38 -151 29 -306 -29 -355 -30 -377 -15 -32 22 -363 22 -395 -1 -16 -11
-37 -14 -79 -10 -32 3 -116 10 -188 16 -71 6 -148 12 -170 15 -22 2 -50 -1
-62 -7z m174 -74 l43 -5 -7 -62 c-3 -34 -9 -65 -12 -70 -4 -4 -45 -4 -91 0
l-84 8 2 55 c2 30 5 63 8 72 5 18 7 18 141 2z m1187 -1 c7 -24 11 -121 5 -126
-2 -3 -43 -7 -90 -11 l-86 -7 -6 67 c-4 37 -5 70 -3 72 3 2 38 7 78 12 40 4
78 8 85 9 6 0 14 -7 17 -16z m-496 -86 c2 -57 -1 -94 -9 -103 -15 -19 -299
-20 -317 -2 -13 13 -17 179 -5 192 4 3 79 5 167 4 l161 -3 3 -88z m-410 64 c1
-1 2 -33 2 -72 l0 -71 -87 7 c-49 4 -90 9 -93 12 -5 5 -2 76 6 113 5 25 5 25
87 18 45 -3 83 -7 85 -7z m656 -13 c3 -13 6 -44 6 -70 0 -46 -1 -48 -29 -48
-15 0 -56 -3 -90 -6 l-61 -7 0 71 c0 81 -3 79 101 81 61 1 67 -1 73 -21z
m-850 -189 c3 -3 -2 -30 -10 -61 -28 -96 -87 -149 -207 -185 -27 -8 -50 -13
-52 -11 -2 2 22 283 24 283 11 2 241 -22 245 -26z m1130 -104 c4 -55 9 -113
12 -129 6 -27 5 -28 -27 -21 -66 14 -150 58 -183 97 -31 36 -72 145 -60 157 3
3 58 11 122 16 101 9 118 8 123 -5 4 -8 9 -60 13 -115z m-574 -49 c0 -58 -4
-116 -10 -130 -10 -28 -45 -66 -60 -66 -6 0 -10 57 -10 150 l0 150 40 0 40 0
0 -104z m620 -1971 l0 -55 -254 0 -254 0 -6 23 c-3 12 -6 37 -6 55 l0 32 260
0 260 0 0 -55z"/>
</g>
</svg>
