<?xml version="1.0" standalone="no"?>
<!DOCTYPE svg PUBLIC "-//W3C//DTD SVG 20010904//EN"
 "http://www.w3.org/TR/2001/REC-SVG-20010904/DTD/svg10.dtd">
<svg version="1.0" xmlns="http://www.w3.org/2000/svg"
 width="512.000000pt" height="512.000000pt" viewBox="0 0 512.000000 512.000000"
 preserveAspectRatio="xMidYMid meet">

<g transform="translate(0.000000,512.000000) scale(0.100000,-0.100000)"
fill="#000000" stroke="none">
<path d="M2378 5109 c-421 -41 -820 -230 -1123 -534 -243 -242 -400 -519 -488
-855 -42 -160 -52 -251 -51 -470 1 -231 21 -364 90 -601 202 -698 743 -1561
1531 -2445 157 -176 187 -204 223 -204 36 0 66 28 223 204 337 378 609 725
845 1079 420 627 654 1136 749 1626 23 118 26 163 27 341 1 127 -4 237 -12
290 -109 688 -586 1258 -1238 1479 -252 85 -512 115 -776 90z m293 -159 c610
-44 1128 -391 1404 -940 99 -196 156 -424 170 -680 34 -588 -338 -1431 -1044
-2365 -159 -210 -455 -566 -584 -700 l-57 -60 -61 65 c-34 36 -112 123 -173
195 -778 906 -1282 1776 -1415 2440 -89 446 -17 871 211 1242 281 460 776 763
1308 802 58 5 107 9 110 9 3 1 62 -3 131 -8z"/>
<path d="M2445 4049 c-133 -20 -285 -88 -392 -176 -111 -91 -221 -266 -258
-412 -66 -259 7 -535 193 -733 312 -331 832 -331 1144 0 227 241 281 589 135
882 -26 54 -51 90 -68 99 -29 16 -69 9 -93 -15 -31 -31 -30 -60 8 -136 47 -97
68 -185 69 -288 0 -108 -15 -174 -65 -279 -72 -151 -222 -276 -393 -327 -82
-25 -248 -25 -330 0 -171 51 -321 176 -393 327 -51 108 -66 172 -64 289 2 191
94 376 241 485 115 84 239 125 378 125 106 0 169 -14 274 -61 48 -22 96 -39
108 -39 32 0 71 44 71 78 0 43 -31 75 -107 110 -136 63 -325 92 -458 71z"/>
<path d="M2852 1555 c-31 -14 -42 -32 -42 -70 0 -37 10 -55 41 -71 54 -28 113
9 113 71 0 61 -53 94 -112 70z"/>
<path d="M2525 1228 c-49 -28 -59 -78 -24 -122 44 -56 140 -20 139 53 -1 30
-16 53 -47 69 -27 15 -42 15 -68 0z"/>
</g>
</svg>
