<?xml version="1.0" standalone="no"?>
<!DOCTYPE svg PUBLIC "-//W3C//DTD SVG 20010904//EN"
 "http://www.w3.org/TR/2001/REC-SVG-20010904/DTD/svg10.dtd">
<svg version="1.0" xmlns="http://www.w3.org/2000/svg"
 width="136.000000pt" height="136.000000pt" viewBox="0 0 136.000000 136.000000"
 preserveAspectRatio="xMidYMid meet">

<g transform="translate(0.000000,136.000000) scale(0.100000,-0.100000)"
fill="#000000" stroke="none">
<path d="M470 1070 l0 -170 -165 0 -165 0 0 -200 0 -200 165 0 165 0 0 -170 0
-170 200 0 200 0 0 170 0 170 170 0 170 0 0 200 0 200 -170 0 -170 0 0 170 0
170 -200 0 -200 0 0 -170z m350 -50 l0 -170 170 0 170 0 0 -150 0 -150 -170 0
-170 0 0 -170 0 -170 -150 0 -150 0 0 170 0 170 -165 0 -165 0 0 150 0 150
165 0 165 0 0 170 0 170 150 0 150 0 0 -170z"/>
</g>
</svg>
