<svg version="1.1" id="Layer_1" xmlns="http://www.w3.org/2000/svg" xmlns:xlink="http://www.w3.org/1999/xlink" x="0px" y="0px"
	 width="100%" viewBox="0 0 265 255" enable-background="new 0 0 265 255" xml:space="preserve">
<path fill="none" opacity="1.000000" stroke="#000000" stroke-linecap="round" stroke-linejoin="round" stroke-width="4.000000"
	d="
M115.500000,23.000000 
	C119.052338,20.017904 123.464241,20.808167 127.505424,20.611334 
	C133.150589,20.336372 138.832733,20.860054 144.500290,20.987282 
	C146.877457,21.040644 149.209869,21.807476 150.931534,23.091780 
	C156.114532,26.958118 161.108994,31.526222 163.248596,37.588726 
	C164.854721,42.139584 164.167038,47.499977 164.530334,52.946232 
	C158.638580,53.488750 153.361420,49.511250 147.405975,50.059635 
	C147.811508,53.002987 149.209213,56.106125 148.215836,57.836906 
	C147.133972,59.721848 143.796402,60.265705 141.508148,61.514935 
	C137.493515,63.706657 134.292618,67.124557 129.008820,67.287033 
	C126.560974,67.362312 124.236923,70.360077 124.437790,74.003433 
	C124.694290,78.655952 124.500000,83.333336 124.500000,88.000000 
	C124.500000,130.000000 124.500000,172.000000 124.500000,214.000000 
	C124.500000,218.166672 124.500000,222.333328 124.500000,226.500000 
"/>
<path fill="none" opacity="1.000000" stroke="#000000" stroke-linecap="round" stroke-linejoin="round" stroke-width="3.000000"
	d="
M75.000000,206.000000 
	C87.168953,206.000000 99.337898,206.000000 111.750000,206.000000 
	C111.750000,189.000000 111.750000,172.500000 111.750000,155.000000 
	C104.531479,155.000000 97.515724,154.992386 90.500008,155.004837 
	C88.506294,155.008377 87.741547,156.881760 87.100998,158.055130 
	C83.545097,164.568893 80.540474,171.384552 75.533134,177.029388 
	C74.342949,178.371094 74.492508,180.257385 74.493866,182.000000 
	C74.504822,196.000000 74.629120,210.001984 74.413803,223.998672 
	C74.356346,227.734192 76.282722,228.048920 78.999954,227.997665 
	C87.500076,227.837357 95.999702,227.647263 104.500252,227.516617 
	C106.172852,227.490921 107.896797,227.198730 109.500000,228.000000 
"/>
<path fill="none" opacity="1.000000" stroke="#000000" stroke-linecap="round" stroke-linejoin="round" stroke-width="3.000000"
	d="
M114.500000,228.500000 
	C122.979973,227.312134 131.455368,227.491608 140.005478,227.879074 
	C150.982941,228.376541 162.000000,228.000000 173.000000,228.000000 
	C177.666672,228.000000 182.334503,227.936249 186.999588,228.022125 
	C190.175964,228.080612 191.683167,227.149109 191.581238,223.497726 
	C191.209152,210.170135 191.180435,196.833130 190.990814,183.500137 
	C190.940247,179.943802 189.851807,176.939224 187.630142,173.904724 
	C183.982986,168.923172 180.825851,163.497223 178.148132,157.928772 
	C176.867279,155.265167 175.351944,154.958862 172.999817,154.980667 
	C166.829575,155.037903 160.658447,155.000000 154.250000,155.000000 
	C154.250000,172.166672 154.250000,188.833328 154.250000,206.159760 
	C166.333328,205.621902 178.166672,206.635574 190.000000,205.500000 
"/>
<path fill="none" opacity="1.000000" stroke="#000000" stroke-linecap="round" stroke-linejoin="round" stroke-width="3.000000"
	d="
M207.500000,148.500000 
	C200.983002,144.064514 198.418747,136.048309 192.040802,131.443481 
	C190.742477,130.506104 190.447769,128.790237 190.449417,126.999954 
	C190.461899,113.493790 190.636597,99.992706 189.665985,86.488068 
	C189.384079,82.565742 190.250931,78.500000 189.436707,74.118530 
	C173.211319,72.399780 156.884277,70.670258 140.500000,68.934677 
	C140.500000,71.500000 140.500000,73.500000 140.500000,75.500000 
	C140.500000,82.133621 140.480164,82.345596 147.004089,82.956291 
	C160.990738,84.265533 175.000000,85.333336 189.000000,86.500000 
"/>
<path fill="none" opacity="1.000000" stroke="#000000" stroke-linecap="round" stroke-linejoin="round" stroke-width="3.000000"
	d="
M101.500000,38.500000 
	C97.972733,38.358723 95.851418,41.224541 93.049355,42.600506 
	C88.368576,44.899025 83.954300,47.759750 79.511780,50.518963 
	C74.175911,53.833038 71.493034,59.416611 68.591660,64.551788 
	C58.155354,83.023071 47.090469,101.134521 36.703255,119.614250 
	C28.957058,133.395386 20.171700,146.605240 13.376217,160.941330 
	C12.253694,163.309464 9.146906,165.291809 9.698464,167.958954 
	C10.335885,171.041321 14.162490,171.671951 16.498438,173.501999 
	C21.274200,177.243469 26.041040,180.996338 31.202486,185.051666 
	C36.758484,177.874924 41.898796,170.742935 47.552986,164.044724 
	C56.455482,153.498413 63.210495,141.226730 73.652161,131.890579 
	C75.283798,130.431671 74.997169,127.425713 75.017639,125.000153 
	C75.149857,109.333191 75.417969,93.666718 75.428406,77.999954 
	C75.430489,74.876015 76.541801,73.742538 79.496712,73.464966 
	C92.837578,72.211815 106.164146,70.806915 119.503220,69.533722 
	C121.153999,69.376152 122.896797,69.198730 124.500000,70.000000 
"/>
<path fill="none" opacity="1.000000" stroke="#000000" stroke-linecap="round" stroke-linejoin="round" stroke-width="3.000000"
	d="
M164.500000,39.000000 
	C176.361404,45.617966 189.389938,49.971077 196.274948,63.863739 
	C204.083893,79.620689 214.175507,94.233582 222.888428,109.563408 
	C225.363159,113.917564 227.836853,118.260788 230.500000,122.500000 
"/>
<path fill="none" opacity="1.000000" stroke="#000000" stroke-linecap="round" stroke-linejoin="round" stroke-width="3.000000"
	d="
M153.000000,104.500000 
	C150.727341,109.260712 152.458771,114.205452 152.723953,118.987579 
	C152.849258,121.247177 155.260284,123.219872 158.503113,123.065506 
	C163.658112,122.820114 168.835373,122.910553 173.999344,123.028809 
	C178.005615,123.120544 181.243591,120.002541 180.997772,116.000137 
	C180.761826,112.158600 181.713516,108.213318 180.000000,104.500000 
"/>
<path fill="none" opacity="1.000000" stroke="#000000" stroke-linecap="round" stroke-linejoin="round" stroke-width="3.000000"
	d="
M86.500000,105.000000 
	C85.476540,109.300377 85.870590,113.689980 86.119812,117.993057 
	C86.302193,121.142143 88.521141,123.047989 92.000137,123.013779 
	C97.332954,122.961327 102.667046,122.961327 107.999863,123.013779 
	C111.478859,123.047997 113.697807,121.142143 113.880188,117.993057 
	C114.129410,113.689980 114.523460,109.300377 113.500000,105.000000 
"/>
<path fill="none" opacity="1.000000" stroke="#000000" stroke-linecap="round" stroke-linejoin="round" stroke-width="4.000000"
	d="
M190.000000,219.500000 
	C172.833328,219.500000 155.666672,219.500000 138.500000,219.500000 
"/>
<path fill="none" opacity="1.000000" stroke="#000000" stroke-linecap="round" stroke-linejoin="round" stroke-width="3.000000"
	d="
M113.000000,104.500000 
	C113.500000,103.666664 114.055893,102.861404 114.490898,101.995430 
	C117.260429,96.481979 115.723724,94.017075 109.499992,94.003967 
	C101.666687,93.987473 93.833313,93.993492 86.000084,94.022842 
	C85.673485,94.024071 85.348145,94.360138 84.784027,94.671806 
	C84.009476,95.908463 84.379700,97.550354 84.570961,98.990578 
	C84.956184,101.891472 86.137001,104.892769 89.500290,104.902817 
	C97.163460,104.925690 104.853584,105.598190 112.500000,104.500000 
"/>
<path fill="none" opacity="1.000000" stroke="#000000" stroke-linecap="round" stroke-linejoin="round" stroke-width="3.000000"
	d="
M179.500000,104.000000 
	C181.557022,101.126038 183.039169,98.131058 181.247620,94.250000 
	C171.500000,94.250000 161.500000,94.250000 151.570206,94.250000 
	C149.529510,101.516685 153.597794,105.924088 160.009216,105.069153 
	C166.290375,104.231575 172.759842,106.103607 179.000000,104.000000 
"/>
<path fill="none" opacity="1.000000" stroke="#000000" stroke-linecap="round" stroke-linejoin="round" stroke-width="4.000000"
	d="
M123.500000,219.500000 
	C107.500000,219.500000 91.500000,219.500000 75.500000,219.500000 
"/>
<path fill="none" opacity="1.000000" stroke="#000000" stroke-linecap="round" stroke-linejoin="round" stroke-width="3.000000"
	d="
M123.500000,82.499992 
	C113.000000,83.333328 102.497643,84.138367 92.000999,85.012047 
	C86.828552,85.442574 81.666664,86.000000 76.500000,86.500000 
"/>
<path fill="none" opacity="1.000000" stroke="#000000" stroke-linecap="round" stroke-linejoin="round" stroke-width="4.000000"
	d="
M74.000000,132.500000 
	C76.190331,138.566284 74.928040,144.848801 74.882401,150.999130 
	C74.820427,159.349976 73.547310,167.702393 75.500000,176.000000 
"/>
<path fill="none" opacity="1.000000" stroke="#000000" stroke-linecap="round" stroke-linejoin="round" stroke-width="3.000000"
	d="
M191.500000,132.500000 
	C189.778061,133.691422 190.426270,135.513260 190.553452,136.995407 
	C191.539902,148.490433 190.714966,160.001801 191.008911,171.499771 
	C191.051010,173.146713 190.988693,174.728348 189.750000,176.000000 
"/>
<path fill="none" opacity="1.000000" stroke="#000000" stroke-linecap="round" stroke-linejoin="round" stroke-width="3.000000"
	d="
M235.500000,132.500000 
	C241.741684,140.784897 246.353867,150.064407 251.368027,159.073456 
	C252.978302,161.966629 255.193451,164.454834 256.719696,168.012009 
	C249.446152,173.530365 242.062790,179.132050 234.545105,184.835632 
	C225.580719,174.988297 218.961075,163.560211 209.500000,154.500000 
"/>
<path fill="none" opacity="1.000000" stroke="#000000" stroke-linecap="round" stroke-linejoin="round" stroke-width="3.000000"
	d="
M41.000000,114.500000 
	C50.166664,121.500000 59.333332,128.500000 68.500000,135.500000 
"/>
<path fill="none" opacity="1.000000" stroke="#000000" stroke-linecap="round" stroke-linejoin="round" stroke-width="3.000000"
	d="
M224.000000,114.500000 
	C215.333328,121.333328 206.666656,128.166656 198.000000,135.000000 
"/>
<path fill="none" opacity="1.000000" stroke="#000000" stroke-linecap="round" stroke-linejoin="round" stroke-width="3.000000"
	d="
M145.500000,34.500000 
	C136.981232,33.709301 128.450562,32.312214 120.000000,35.000000 
"/>
<path fill="none" opacity="1.000000" stroke="#000000" stroke-linecap="round" stroke-linejoin="round" stroke-width="3.000000"
	d="
M35.000000,125.500000 
	C43.333332,132.000000 51.666664,138.500000 60.000000,145.000000 
"/>
<path fill="none" opacity="1.000000" stroke="#000000" stroke-linecap="round" stroke-linejoin="round" stroke-width="3.000000"
	d="
M150.500000,24.000000 
	C149.095856,29.251348 146.624878,34.125446 145.417923,39.481503 
	C143.726440,46.987705 138.503769,52.565697 134.021637,58.516300 
	C132.131027,61.026333 129.295837,62.976566 129.000000,66.500000 
"/>
<path fill="none" opacity="1.000000" stroke="#000000" stroke-linecap="round" stroke-linejoin="round" stroke-width="3.000000"
	d="
M115.000000,24.500000 
	C116.641663,29.341955 118.976746,33.920845 120.041054,38.991383 
	C121.695183,46.872036 126.675377,52.815151 132.000000,58.500000 
"/>
<path fill="none" opacity="1.000000" stroke="#000000" stroke-linecap="round" stroke-linejoin="round" stroke-width="3.000000"
	d="
M128.000000,64.000000 
	C124.351334,61.363285 119.582108,60.567497 116.653488,57.145439 
	C116.966728,54.692329 117.264137,52.363182 117.672043,49.168728 
	C111.573532,50.753078 106.286766,52.126541 101.000000,53.500004 
"/>
<path fill="none" opacity="1.000000" stroke="#000000" stroke-linecap="round" stroke-linejoin="round" stroke-width="3.000000"
	d="
M114.750000,23.000000 
	C110.129036,25.981304 107.154091,30.570784 103.463905,34.465801 
	C102.163963,35.837898 102.025475,37.567719 102.106903,38.993896 
	C102.366302,43.536839 100.406036,47.953308 101.500000,52.500000 
"/>
<path fill="none" opacity="1.000000" stroke="#000000" stroke-linecap="round" stroke-linejoin="round" stroke-width="3.000000"
	d="
M244.500000,169.000000 
	C242.245056,169.984711 240.147736,171.162033 239.000000,173.500000 
"/>
</svg>