<svg version="1.1" id="Layer_1" xmlns="http://www.w3.org/2000/svg" xmlns:xlink="http://www.w3.org/1999/xlink" x="0px" y="0px"
	 width="100%" viewBox="0 0 368 368" enable-background="new 0 0 368 368" xml:space="preserve">
<path fill="#000000" opacity="1.000000" stroke="none" 
	d="
M124.875275,49.933502 
	C128.980545,42.840534 132.840561,36.028332 136.801453,29.275301 
	C143.757568,17.415621 156.653564,13.269041 168.582611,19.932381 
	C190.827606,32.358021 212.889633,45.124393 234.786072,58.155159 
	C245.293961,64.408493 248.422394,77.691124 242.231918,88.895195 
	C233.292160,105.075150 223.853378,120.979393 214.627167,137.001083 
	C205.401672,153.021545 196.131714,169.016708 186.983932,185.081451 
	C184.943237,188.665161 182.415924,191.440033 178.675186,193.371368 
	C169.210526,198.257904 159.654617,203.039658 150.595062,208.611038 
	C145.412506,211.798218 141.061615,216.371613 136.465454,220.465881 
	C133.652237,222.971909 130.962799,225.466660 126.776726,224.075119 
	C125.119949,223.524384 124.303497,224.686691 123.428665,225.644791 
	C106.130714,244.589111 88.845413,263.544983 71.578751,282.517792 
	C71.289459,282.835693 71.263107,283.392883 71.020218,284.118958 
	C73.347855,285.017944 75.678574,284.651764 77.932922,284.653198 
	C119.760567,284.679962 161.588242,284.671356 203.415909,284.682098 
	C205.246078,284.682587 207.142197,284.513733 208.891586,284.921448 
	C211.826950,285.605560 213.330856,287.671051 213.273056,290.767456 
	C213.214615,293.898071 211.648407,295.772888 208.571426,296.248718 
	C207.264282,296.450867 205.912537,296.403656 204.581070,296.403900 
	C145.755707,296.414093 86.930344,296.416931 28.104979,296.420593 
	C27.771690,296.420624 27.437521,296.403412 27.105251,296.421570 
	C22.922112,296.649811 19.729935,295.376678 19.378433,290.660248 
	C19.103018,286.964752 22.003767,284.735657 26.908237,284.689087 
	C33.240166,284.628967 39.583260,284.451050 45.901810,284.746277 
	C49.884125,284.932343 51.945492,283.597809 53.155979,279.720642 
	C61.238014,253.834106 69.491898,228.001190 77.705353,202.155746 
	C78.581970,199.397278 79.352226,196.794281 76.828400,194.318283 
	C75.443115,192.959259 75.295052,190.828766 75.859978,189.100098 
	C81.665001,171.336746 79.132271,153.144196 78.742340,135.068771 
	C78.663582,131.417847 79.736916,128.272980 81.539253,125.155525 
	C95.961723,100.209282 110.306725,75.218239 124.875275,49.933502 
M129.954651,120.143127 
	C128.255890,114.550430 129.152710,109.183189 131.929947,104.242081 
	C138.214127,93.061691 144.566132,81.913124 151.189301,70.931793 
	C155.595459,63.626316 162.336960,60.285568 170.969864,60.677937 
	C176.241150,60.917519 180.448959,63.593143 184.764603,66.085793 
	C197.889297,73.666412 210.996017,81.278221 224.093170,88.906334 
	C225.610596,89.790131 227.028458,90.725990 228.392303,88.763786 
	C233.826538,80.945358 237.025146,73.294373 225.582993,66.759506 
	C205.331802,55.193619 185.157059,43.493717 164.967422,31.820353 
	C156.978836,27.201469 151.290115,28.653481 146.651443,36.661655 
	C133.876678,58.715984 121.106880,80.773224 108.366440,102.847389 
	C103.398460,111.454964 98.514214,120.110863 93.473022,128.953125 
	C95.383530,130.180771 96.736237,131.125763 98.158012,131.951889 
	C112.417007,140.237198 126.679779,148.516068 140.957001,156.769913 
	C151.484909,162.856201 162.008896,168.950516 172.604218,174.917694 
	C174.286896,175.865341 176.491501,178.168030 178.262100,175.451614 
	C181.322098,170.756989 183.939941,165.774200 186.575333,161.203568 
	C185.363907,159.040009 183.724670,158.446350 182.316910,157.631699 
	C169.053879,149.956558 155.784561,142.291534 142.465439,134.714355 
	C136.779846,131.479858 132.094116,127.463409 129.954651,120.143127 
M191.252945,148.604828 
	C194.180679,149.845688 194.624039,147.212509 195.522125,145.677002 
	C203.335999,132.316803 210.969299,118.849953 218.888168,105.552902 
	C220.795654,102.349915 220.436539,100.746681 217.187607,98.911659 
	C203.421295,91.136238 189.780289,83.139038 176.089722,75.229416 
	C169.004120,71.135765 164.529144,72.224655 160.301086,79.400566 
	C154.556503,89.150345 148.926956,98.969864 143.384933,108.836334 
	C139.645248,115.494125 141.043610,119.753830 147.833755,123.650589 
	C162.123489,131.851196 176.394989,140.083557 191.252945,148.604828 
M133.201202,185.228043 
	C137.799240,187.899780 142.382553,190.597366 147.003464,193.228928 
	C148.568314,194.120071 150.143585,195.225510 152.107971,194.114517 
	C156.694855,191.520355 161.297989,188.954956 166.875397,185.827988 
	C141.399872,171.115738 116.806625,156.913010 91.350082,142.211716 
	C91.350082,147.769424 91.560532,152.075760 91.284157,156.350616 
	C91.059029,159.832794 92.450775,161.818954 95.403778,163.485199 
	C107.849998,170.507965 120.192894,177.713882 133.201202,185.228043 
M110.021324,214.403030 
	C103.610008,210.756088 97.198685,207.109146 90.117920,203.081421 
	C83.443909,224.108185 77.042801,244.275131 70.641701,264.442078 
	C70.839188,264.546600 71.036674,264.651154 71.234154,264.755676 
	C85.568199,249.114059 99.902245,233.472427 114.107529,217.971313 
	C113.412682,215.912796 111.703545,215.701172 110.021324,214.403030 
M89.278908,184.175262 
	C88.481735,186.462204 88.739700,188.179688 91.157265,189.545212 
	C102.861618,196.156219 114.486275,202.908310 126.139648,209.609589 
	C127.492180,210.387344 128.868927,210.966949 130.253967,209.709335 
	C132.778061,207.417419 135.743820,205.527130 137.629700,201.880234 
	C122.142021,192.974182 106.878304,184.196899 91.083206,175.114059 
	C90.361794,178.616974 89.867538,181.016922 89.278908,184.175262 
z"/>
<path fill="#000000" opacity="1.000000" stroke="none" 
	d="
M349.374756,218.139267 
	C346.784637,233.894531 342.303680,248.402374 331.657745,260.270691 
	C325.259430,267.403595 317.671936,272.038086 307.630249,271.372284 
	C305.344360,271.220703 303.319336,271.404175 303.222229,274.620117 
	C302.730896,290.889435 295.480408,304.763367 287.251923,318.170471 
	C279.221710,331.254456 269.915619,343.434174 259.879700,355.061462 
	C257.272278,358.082336 254.274063,359.308044 250.274475,359.282166 
	C229.275848,359.146332 208.275940,359.196411 187.276505,359.212463 
	C183.809830,359.215118 180.284851,359.044525 178.969208,355.185394 
	C177.620544,351.229401 179.948380,348.714417 183.053711,346.473328 
	C201.667297,333.040283 217.219238,316.794678 228.434189,296.605621 
	C232.253510,289.730133 235.208679,282.514893 237.257767,274.930054 
	C237.827011,272.822937 238.449127,270.641266 235.775391,269.320099 
	C222.003403,262.515015 215.135803,250.164307 210.704773,236.471725 
	C201.439545,207.840729 202.203522,179.370224 214.631836,151.725616 
	C219.214264,141.532837 225.983017,132.887466 236.834290,128.362335 
	C239.495529,127.252563 242.190369,126.649948 245.079453,126.653809 
	C266.745514,126.682800 288.411652,126.665077 310.077759,126.672203 
	C317.924957,126.674789 324.105164,130.414124 329.550140,135.600418 
	C338.934937,144.539322 343.872162,155.978790 347.041962,168.201965 
	C351.266724,184.493393 351.957458,201.038361 349.374756,218.139267 
M239.212143,257.459229 
	C242.043472,259.068970 245.138062,259.601929 248.337631,259.606598 
	C258.170624,259.620972 268.003876,259.630493 277.836639,259.575439 
	C279.898804,259.563904 281.959381,259.268585 283.703888,259.129333 
	C260.984375,218.707977 261.030670,178.910889 284.048767,138.413177 
	C273.951508,138.413177 263.936523,139.055374 254.037537,138.257935 
	C240.272949,137.149094 231.713943,143.787888 226.443130,155.345169 
	C213.518692,183.684509 213.414566,212.374741 225.503128,241.019333 
	C228.244370,247.514877 232.376068,253.219757 239.212143,257.459229 
M258.377014,337.894531 
	C268.682251,324.797028 278.303162,311.250275 285.394012,296.083832 
	C288.286316,289.897583 290.784485,283.599091 290.910217,276.571289 
	C290.977692,272.799133 289.793854,271.182343 285.755554,271.301453 
	C277.443573,271.546631 269.119110,271.371216 260.799805,271.365112 
	C250.973267,271.357941 250.975586,271.356903 248.111282,280.999054 
	C247.874786,281.795166 247.571976,282.571411 247.309616,283.360046 
	C239.707993,306.208679 225.598938,324.692780 208.567657,341.234924 
	C207.017853,342.740204 204.913376,343.912811 204.116943,346.822144 
	C216.457550,346.822144 228.283905,346.320557 240.042557,346.996826 
	C248.004272,347.454681 253.999557,345.571838 258.377014,337.894531 
M292.483429,248.996399 
	C293.667725,250.389954 294.769836,251.864441 296.049713,253.163849 
	C303.950897,261.185669 312.361694,261.609131 320.725739,254.242279 
	C325.432892,250.096329 328.505493,244.707977 330.951904,239.024673 
	C339.088226,220.122986 340.382538,200.435593 337.190948,180.335999 
	C335.456177,169.410904 332.291382,158.945007 325.896606,149.706436 
	C322.809937,145.247147 319.118683,141.406006 313.945679,139.467972 
	C306.511780,136.682907 298.350281,140.415314 292.431366,149.065643 
	C286.006805,158.454987 282.436798,168.985977 280.760132,180.095688 
	C277.146362,204.040497 278.890747,227.189911 292.483429,248.996399 
z"/>
<path fill="#000000" opacity="1.000000" stroke="none" 
	d="
M291.572571,178.872375 
	C292.623322,173.882660 293.887665,169.411728 296.496918,165.452087 
	C303.079163,155.463364 315.070251,155.497864 321.461670,165.616898 
	C326.042267,172.868927 327.231964,181.177231 327.866211,189.461060 
	C328.886993,202.793503 328.597656,216.057465 323.382904,228.730225 
	C320.704865,235.238281 316.372650,239.962738 309.022766,240.012909 
	C301.650238,240.063217 297.140839,235.320633 294.520660,228.875214 
	C289.181213,215.740723 289.043701,201.974289 290.104523,188.126526 
	C290.331543,185.163101 291.028625,182.235687 291.572571,178.872375 
M315.034882,184.433456 
	C314.734070,181.263474 313.925537,178.211609 312.766357,175.261108 
	C312.044861,173.424591 311.453918,170.975784 309.248291,170.823669 
	C306.651611,170.644562 305.948303,173.246735 305.157654,175.213638 
	C302.704437,181.316757 302.277405,187.854767 301.663300,194.269760 
	C300.702515,204.306168 302.241913,214.156982 305.516876,223.691406 
	C306.093628,225.370468 306.997223,227.352737 309.194244,227.257950 
	C311.125519,227.174652 311.665680,225.209503 312.374481,223.755249 
	C312.951813,222.570801 313.293640,221.259338 313.642670,219.977722 
	C316.758514,208.536087 316.200226,196.923584 315.034882,184.433456 
z"/>
</svg>