<svg version="1.1" id="Layer_1" xmlns="http://www.w3.org/2000/svg" xmlns:xlink="http://www.w3.org/1999/xlink" x="0px" y="0px"
	 width="100%" viewBox="0 0 288 256" enable-background="new 0 0 288 256" xml:space="preserve">
<path fill="#000000" opacity="1.000000" stroke="none" 
	d="
M130.468658,257.000000 
	C131.705704,244.899811 129.836136,233.142624 126.363800,221.595276 
	C125.358528,218.252213 122.422447,216.884689 119.111038,216.228409 
	C110.783928,214.578079 102.532555,212.674332 94.663399,209.341507 
	C86.431671,205.855133 78.932671,201.330017 72.902542,194.636551 
	C71.141060,192.681305 69.099792,191.707153 66.474854,191.253113 
	C38.482063,186.411179 17.690742,161.594254 17.653395,133.136795 
	C17.614601,103.578583 37.833275,78.742523 66.082283,73.648102 
	C74.219193,72.180679 74.133568,72.163048 75.854057,63.808029 
	C77.031448,58.090363 78.938782,52.596077 81.444550,47.296909 
	C83.070457,43.858467 85.357979,41.571815 89.239380,43.195206 
	C93.254486,44.874516 92.961288,48.448814 91.580971,51.714558 
	C89.499512,56.639183 87.676186,61.625061 86.566475,66.850616 
	C85.753792,70.677467 86.290558,72.856224 91.066597,74.306221 
	C97.861366,76.369095 102.674187,75.546219 108.692551,71.382126 
	C133.075058,54.511925 164.424591,56.022507 187.787842,74.385292 
	C190.128998,76.225357 192.242142,77.119743 195.021729,75.731659 
	C195.757584,75.364182 196.594757,75.191704 197.394501,74.961243 
	C206.969284,72.201881 207.030457,72.173141 204.420975,62.539600 
	C197.526550,37.087189 175.197891,18.378138 146.787903,17.535994 
	C138.145721,17.279816 129.569595,19.098536 121.575851,22.848011 
	C119.921936,23.623785 118.224426,24.432764 116.457985,24.814562 
	C113.383354,25.479120 111.235748,23.923943 110.214218,21.129395 
	C109.116234,18.125696 110.571297,15.896125 113.169701,14.500357 
	C121.339134,10.112028 130.110153,7.329974 139.316025,6.771644 
	C178.662766,4.385288 209.381775,28.414032 216.508133,66.947876 
	C217.171707,70.535980 218.223114,72.408569 222.510696,73.136154 
	C250.309082,77.853401 268.540833,95.687683 273.475128,122.278885 
	C279.376038,154.079361 257.831268,185.376923 225.953339,191.215469 
	C223.936417,191.584885 221.986130,191.819733 220.627792,193.526123 
	C209.152878,207.941177 192.922485,213.038437 175.798477,216.225769 
	C167.646149,217.743195 166.041977,218.900177 164.114655,226.869202 
	C161.792282,236.471558 161.314880,246.267731 161.117767,256.548706 
	C150.979111,257.000000 140.958206,257.000000 130.468658,257.000000 
M78.747322,125.263939 
	C79.254074,111.127686 83.912697,98.337372 92.317612,86.072258 
	C74.891785,80.742210 60.014999,84.225822 46.609081,94.591690 
	C31.469007,106.298439 24.868895,127.350220 30.673172,146.284988 
	C35.606300,162.377869 46.363770,173.151566 63.219593,179.158722 
	C62.743519,176.220978 62.397137,174.300720 62.126598,172.369858 
	C61.523792,168.067566 61.163330,163.767258 62.505890,159.518295 
	C63.228985,157.229828 64.634659,155.838120 67.159401,155.701492 
	C69.554207,155.571899 71.334641,156.426682 72.578682,158.518112 
	C78.117714,167.830170 82.385048,169.556747 93.470795,168.042862 
	C102.309135,166.835892 111.104675,164.233093 120.185303,166.558075 
	C122.841316,167.238098 123.404518,165.517197 123.738388,163.140747 
	C125.853851,148.082870 130.972641,134.136459 139.578522,121.522682 
	C144.052704,114.964813 147.748032,114.848587 152.128021,121.295441 
	C160.311707,133.340927 165.205704,146.630295 167.436447,161.008499 
	C168.538498,168.111633 168.441360,168.465225 175.057190,167.045807 
	C177.574600,166.505692 180.384140,166.911102 182.995621,167.310303 
	C188.745834,168.189346 194.443848,169.403976 200.183121,170.362000 
	C208.297714,171.716522 215.609146,168.857574 218.174042,162.938721 
	C219.589981,159.671234 221.488892,157.936905 224.994751,158.702255 
	C228.644043,159.498932 229.337814,162.390106 229.344269,165.617371 
	C229.352692,169.837097 229.470062,174.056900 228.314056,179.365173 
	C246.147095,172.747253 257.211761,161.615814 261.841492,144.428589 
	C266.935974,125.516174 259.888672,105.195107 243.876511,93.471214 
	C230.817780,83.909813 216.455673,80.889496 199.944687,86.076599 
	C203.481674,92.175774 207.008728,97.452744 208.912643,103.480789 
	C209.995728,106.909943 210.100418,110.360161 205.993607,111.833015 
	C202.198227,113.194168 200.106735,110.735718 198.643524,107.609840 
	C198.291061,106.856865 198.023788,106.064392 197.706421,105.294579 
	C182.874496,69.317375 135.420654,59.335300 107.422112,86.362442 
	C96.798454,96.617523 90.819870,109.075195 90.178986,123.980614 
	C90.018463,127.713890 89.532425,131.762955 84.673546,132.144287 
	C80.777824,132.450012 79.147430,129.713760 78.747322,125.263939 
M95.147400,197.345383 
	C103.732620,201.592545 112.950989,203.716858 122.278069,205.519806 
	C130.457855,207.100983 135.480347,212.112167 137.643234,220.085693 
	C140.091064,229.109497 141.755997,238.252960 141.312744,247.645905 
	C141.148499,251.125946 142.042801,252.796616 145.985596,252.761566 
	C149.903015,252.726746 150.843536,251.027237 150.683807,247.571060 
	C150.296921,239.199524 151.622055,231.009491 153.598618,222.899750 
	C156.240921,212.058655 161.309906,207.430130 172.184540,205.603256 
	C182.899139,203.803238 193.413879,201.236359 202.556732,194.982910 
	C207.972504,191.278671 212.820984,186.968597 215.441788,179.829697 
	C210.206009,181.527740 205.549240,181.250717 200.907761,181.381058 
	C196.164261,181.514282 191.711685,180.069641 187.151443,179.237320 
	C170.434265,176.186142 160.937256,180.230621 151.567947,194.549362 
	C147.722260,200.426605 142.290054,200.320312 138.783646,194.299194 
	C130.240128,179.628479 119.073036,174.613617 102.242340,178.015640 
	C96.327972,179.211121 90.381310,179.433594 84.374466,179.373215 
	C81.483879,179.344162 78.820045,177.470795 75.411842,178.336716 
	C79.502800,187.250137 86.378540,192.746109 95.147400,197.345383 
M154.659927,153.769043 
	C152.477631,146.866257 150.623474,139.820435 146.470474,133.903198 
	C144.840546,134.104980 144.451492,135.119904 144.000931,135.958069 
	C138.576096,146.049820 135.581909,156.882141 134.386017,168.228455 
	C134.199783,169.995483 133.937195,171.961823 135.496948,173.402679 
	C138.762054,176.418869 142.057709,179.401993 145.426666,182.477081 
	C149.046265,179.343643 152.537796,176.297806 156.058258,173.285736 
	C157.328232,172.199203 157.752823,170.857300 157.467957,169.266418 
	C156.590927,164.368423 155.693832,159.474014 154.659927,153.769043 
z"/>
<path fill="#000000" opacity="1.000000" stroke="none" 
	d="
M104.260956,31.960350 
	C103.346786,36.045013 101.084938,37.859875 97.367226,36.618755 
	C94.253372,35.579224 93.027336,32.952904 94.041550,29.867376 
	C95.095093,26.662224 97.748650,25.818592 100.844940,26.698572 
	C103.185280,27.363703 104.248642,29.144892 104.260956,31.960350 
z"/>
<path fill="#000000" opacity="1.000000" stroke="none" 
	d="
M202.438446,126.929153 
	C202.780731,123.152451 204.590866,121.486053 208.070618,121.659843 
	C210.801987,121.796242 212.449631,123.292778 212.985596,125.810776 
	C213.533554,128.385117 212.322205,130.389450 210.081268,131.631805 
	C206.790878,133.455978 204.105713,131.893158 202.438446,126.929153 
z"/>
</svg>