<svg version="1.1" id="Layer_1" xmlns="http://www.w3.org/2000/svg" xmlns:xlink="http://www.w3.org/1999/xlink" x="0px" y="0px"
	 width="100%" viewBox="0 0 256 288" enable-background="new 0 0 256 288" xml:space="preserve">
<path fill="#000000" opacity="1.000000" stroke="none" 
	d="
M62.005230,247.309448 
	C59.979607,247.311859 58.783054,246.428696 57.697636,245.355453 
	C50.826859,238.561844 43.967762,231.756409 37.095123,224.964676 
	C34.515541,222.415451 34.506042,219.812256 36.675701,216.970200 
	C40.313457,212.205063 43.837551,207.353302 47.457291,202.574203 
	C48.762806,200.850555 49.327103,199.345856 48.017345,197.180679 
	C44.905720,192.036743 42.645985,186.459488 40.847832,180.732758 
	C40.060726,178.225998 38.660217,177.212952 36.114952,177.361038 
	C34.289486,177.467209 32.451046,177.367828 30.618788,177.336975 
	C20.518837,177.166931 13.106777,170.931015 10.973483,160.817886 
	C9.036265,151.634293 13.484473,142.368195 22.186989,138.540146 
	C25.378366,137.136307 26.457905,135.433411 26.895647,131.973495 
	C32.292400,89.317612 54.641880,59.416824 94.606422,43.048687 
	C97.256737,41.963211 98.925140,40.516064 100.161758,37.862000 
	C103.017166,31.733591 108.036057,28.630911 114.907486,28.651676 
	C125.569733,28.683895 136.232239,28.687059 146.894455,28.650045 
	C153.973312,28.625473 159.050552,31.863970 161.957291,38.190071 
	C163.107803,40.693970 164.715424,42.058308 167.201202,43.042294 
	C203.888397,57.564709 225.815506,84.465103 233.887680,122.896530 
	C234.261627,124.676926 234.355835,126.522606 234.495834,128.344376 
	C234.887070,133.435593 236.036835,137.202515 241.751358,139.740921 
	C249.795456,143.314117 253.006851,153.276321 250.659714,162.037689 
	C248.100830,171.589508 241.182800,177.142715 231.588882,177.344574 
	C231.089233,177.355087 230.575760,177.431610 230.091644,177.346710 
	C224.370926,176.343628 221.175186,178.437759 219.848175,184.372314 
	C218.994019,188.192245 217.004501,191.852325 215.024597,195.297104 
	C213.408539,198.108826 213.802505,200.058014 215.776337,202.418655 
	C219.299713,206.632446 222.484451,211.127350 225.908096,215.427246 
	C228.399597,218.556427 228.384857,221.380402 225.495102,224.255661 
	C218.763702,230.953384 212.084290,237.703568 205.407257,244.455688 
	C202.861343,247.030212 200.181564,247.088058 197.364685,245.006744 
	C192.944763,241.740967 188.461761,238.551315 184.175735,235.116974 
	C181.545044,233.008987 179.347382,232.411163 176.184631,234.397537 
	C171.248398,237.497772 165.827393,239.944336 160.146652,241.187332 
	C154.968536,242.320374 153.727264,245.530975 153.310654,250.040741 
	C152.883392,254.665924 151.949005,259.242859 151.470306,263.865143 
	C151.068207,267.747772 149.144653,269.410675 145.259247,269.372620 
	C135.764053,269.279572 126.266617,269.286041 116.771461,269.384796 
	C112.873611,269.425354 110.994377,267.723572 110.589256,263.851501 
	C110.088417,259.064606 109.146996,254.323700 108.650398,249.536514 
	C108.197830,245.173782 106.808243,242.206345 101.870987,241.177048 
	C96.676842,240.094177 91.724388,237.865234 87.118340,235.164352 
	C83.929016,233.294189 81.609940,233.645309 78.627235,235.928619 
	C73.392326,239.935989 68.792107,244.930313 62.005230,247.309448 
M163.348907,72.500153 
	C163.340088,83.160202 163.327728,93.820259 163.324936,104.480309 
	C163.324234,107.202583 162.181503,109.047020 159.314392,109.190475 
	C156.182632,109.347183 154.827957,107.473022 154.700546,104.540314 
	C154.642746,103.209953 154.660095,101.875900 154.659653,100.543526 
	C154.653824,82.887398 154.689072,65.231140 154.628326,47.575203 
	C154.604248,40.575764 151.534225,37.481674 144.596939,37.410797 
	C136.102890,37.324009 127.607269,37.374870 119.112366,37.391109 
	C109.933701,37.408657 107.362137,40.023830 107.353500,49.388302 
	C107.337067,67.210991 107.351891,85.033707 107.338249,102.856392 
	C107.336609,105.000114 107.621658,107.267891 105.324593,108.638367 
	C101.837975,110.718552 98.703575,108.238457 98.682945,103.158707 
	C98.620720,87.834755 98.680771,72.510292 98.612740,57.186390 
	C98.605156,55.477993 99.339241,53.523056 97.587708,51.935246 
	C92.303802,53.532490 87.399178,55.972763 82.738678,58.861652 
	C56.235172,75.290314 40.429817,98.797981 36.378181,129.844284 
	C35.500992,136.565918 35.929016,136.646988 42.466301,136.647675 
	C101.597694,136.653839 160.729202,136.600769 219.860260,136.742203 
	C224.704788,136.753784 226.366592,135.429291 225.785065,130.501343 
	C222.565643,103.219566 209.670822,81.503159 188.153381,64.793625 
	C180.942566,59.194012 173.102386,54.545712 163.349426,51.625717 
	C163.349426,58.659306 163.349426,65.079819 163.348907,72.500153 
M123.009827,260.640961 
	C127.842339,260.643860 132.691376,260.400879 137.502350,260.724182 
	C141.664871,261.003937 143.169327,259.024689 143.611923,255.330002 
	C144.204407,250.384064 145.094482,245.470261 145.571472,240.515198 
	C145.912781,236.969528 147.664108,235.318314 151.047485,234.456039 
	C159.965042,232.183289 168.510300,228.860641 176.272751,223.847229 
	C179.447464,221.796829 182.108505,222.116180 184.943954,224.306992 
	C189.162491,227.566483 193.524017,230.642593 197.706207,233.946716 
	C199.823105,235.619156 201.419556,235.520874 203.281113,233.567856 
	C206.959061,229.709244 210.682922,225.879700 214.603958,222.273148 
	C216.844391,220.212433 216.754013,218.521698 214.975067,216.323273 
	C212.146378,212.827545 209.681717,209.017181 206.675079,205.690598 
	C203.017776,201.644104 202.630234,197.966736 205.632568,193.201553 
	C208.555542,188.562363 211.291077,183.604095 212.251602,177.368439 
	C208.421677,177.368439 205.238892,177.692017 202.147476,177.298279 
	C196.443314,176.571793 193.365189,178.676773 190.619751,183.977081 
	C177.285980,209.719070 150.576370,220.673264 126.859718,218.924744 
	C100.851677,217.007263 81.296181,204.375397 69.383362,180.737976 
	C68.640327,179.263641 68.056763,177.499847 66.006485,177.476944 
	C60.766872,177.418381 55.526173,177.457428 49.786198,177.457428 
	C51.189667,184.711151 54.487705,190.123108 57.668198,195.522354 
	C59.619030,198.834076 59.666317,201.704300 57.348930,204.732941 
	C54.313011,208.700668 51.439178,212.795197 48.326309,216.700226 
	C46.329884,219.204697 46.101082,221.199890 48.652134,223.542786 
	C52.329662,226.920258 55.870979,230.467331 59.236912,234.155151 
	C61.407825,236.533691 63.206013,236.455887 65.574387,234.527344 
	C69.706894,231.162338 74.024231,228.025421 78.217422,224.733444 
	C80.695000,222.788361 83.086708,222.277939 85.984093,224.060211 
	C93.985672,228.982178 102.617317,232.466385 111.752571,234.650055 
	C114.578056,235.325470 115.968193,237.005936 116.317116,239.825439 
	C116.949104,244.932281 117.619064,250.036118 118.394684,255.122696 
	C118.755196,257.486969 118.542107,260.397614 123.009827,260.640961 
M106.499908,168.653107 
	C146.625015,168.654022 186.750107,168.651321 226.875214,168.664062 
	C229.546066,168.664917 232.181335,168.643784 234.742905,167.674194 
	C239.348633,165.930862 242.910278,161.543182 242.502121,157.120743 
	C242.049484,152.216599 239.780655,148.276642 234.890015,146.301102 
	C232.659927,145.400253 230.358856,145.363876 228.020340,145.364182 
	C163.420425,145.372589 98.820511,145.373245 34.220600,145.362350 
	C31.878517,145.361954 29.580410,145.433762 27.351978,146.315292 
	C22.566807,148.208191 19.390251,152.403992 19.460340,156.867065 
	C19.529428,161.266617 23.274628,166.164520 27.682274,167.855392 
	C29.942432,168.722458 32.249077,168.651779 34.573185,168.652145 
	C58.215420,168.655975 81.857658,168.653275 106.499908,168.653107 
M172.586990,193.088562 
	C176.854355,188.686783 180.994995,184.198959 183.184906,177.737579 
	C148.251083,177.737579 113.738289,177.737579 79.089455,177.737579 
	C91.247879,208.494781 140.190598,223.624588 172.586990,193.088562 
z"/>
</svg>