<?xml version="1.0" standalone="no"?>
<!DOCTYPE svg PUBLIC "-//W3C//DTD SVG 20010904//EN"
 "http://www.w3.org/TR/2001/REC-SVG-20010904/DTD/svg10.dtd">
<svg version="1.0" xmlns="http://www.w3.org/2000/svg"
 width="307.000000pt" height="286.000000pt" viewBox="0 0 307.000000 286.000000"
 preserveAspectRatio="xMidYMid meet">

<g transform="translate(0.000000,286.000000) scale(0.100000,-0.100000)"
fill="#000000" stroke="none">
<path d="M975 2666 c-226 -36 -448 -161 -586 -332 -68 -84 -71 -88 -63 -108 9
-24 232 -161 358 -222 61 -29 154 -68 206 -86 l95 -33 -155 -5 c-181 -6 -210
-16 -248 -90 -27 -52 -24 -103 9 -157 l21 -33 -20 -32 c-47 -76 -29 -176 38
-216 27 -17 29 -21 15 -32 -28 -23 -64 -94 -75 -147 -15 -68 0 -144 40 -207
l30 -46 -68 0 c-87 0 -134 -14 -178 -52 -86 -75 -95 -190 -23 -273 l31 -35
-31 -35 c-93 -106 -40 -278 98 -315 27 -7 356 -10 1043 -8 l1003 3 60 24 c82
33 164 115 195 196 32 82 32 188 1 268 -30 77 -117 166 -186 192 -27 10 -51
19 -53 20 -1 1 5 19 14 40 18 45 12 94 -18 143 l-20 32 21 33 c51 84 26 182
-59 225 -37 19 -60 22 -148 22 -91 0 -103 2 -98 16 19 50 17 90 -8 138 l-25
50 19 31 c49 79 24 178 -55 222 -27 15 -35 24 -25 27 8 3 56 19 105 36 205 70
564 275 565 322 0 4 -28 41 -61 83 -151 187 -382 315 -624 344 -129 16 -1035
13 -1140 -3z m1203 -82 c85 -17 203 -64 289 -116 58 -34 233 -196 233 -215 0
-14 -166 -117 -280 -173 -536 -267 -1184 -267 -1720 0 -114 56 -280 159 -280
173 0 19 175 181 233 215 83 50 203 99 282 116 107 22 1133 23 1243 0z m-43
-809 c16 -15 25 -36 25 -55 0 -19 -9 -40 -25 -55 l-24 -25 -711 0 -711 0 -24
25 c-16 15 -25 36 -25 55 0 19 9 40 25 55 l24 25 711 0 711 0 24 -25z m0 -240
c16 -15 25 -36 25 -55 0 -19 -9 -40 -25 -55 l-24 -25 -711 0 -711 0 -24 25
c-16 15 -25 36 -25 55 0 19 9 40 25 55 l24 25 711 0 711 0 24 -25z m320 -240
c33 -32 33 -78 0 -110 l-24 -25 -836 0 -835 0 0 -40 0 -40 835 0 836 0 24 -25
c33 -32 33 -78 0 -110 l-24 -25 -816 0 c-882 0 -855 -2 -913 53 -82 76 -82
219 0 293 61 56 14 53 906 54 l823 0 24 -25z m95 -476 c55 -25 114 -80 143
-134 17 -32 22 -57 22 -125 0 -98 -18 -141 -82 -201 -84 -80 15 -74 -1126 -77
-899 -2 -1021 -1 -1047 13 -55 28 -76 105 -45 165 33 63 -25 60 1090 60 l1015
0 0 40 0 40 -1015 0 c-1115 0 -1057 -3 -1090 60 -19 37 -19 83 0 120 32 62
-27 59 1080 59 994 1 1011 0 1055 -20z"/>
</g>
</svg>
