<svg version="1.1" id="Layer_1" xmlns="http://www.w3.org/2000/svg" xmlns:xlink="http://www.w3.org/1999/xlink" x="0px" y="0px"
	 width="100%" viewBox="0 0 136 136" enable-background="new 0 0 136 136" xml:space="preserve">
<path fill="#FFFFFF" opacity="1.000000" stroke="none" 
	d="
M82.000000,137.000000 
	C54.691345,137.000000 27.882694,137.000000 1.037020,137.000000 
	C1.037020,91.733070 1.037020,46.466099 1.037020,1.099564 
	C46.225067,1.099564 91.450424,1.099564 136.837891,1.099564 
	C136.837891,46.332863 136.837891,91.666382 136.837891,137.000000 
	C118.799843,137.000000 100.649925,137.000000 82.000000,137.000000 
M60.510056,12.975312 
	C56.409256,12.975312 52.308456,12.975312 47.840977,12.975312 
	C47.840977,24.627512 47.840977,35.697491 47.840977,47.145985 
	C36.719204,47.145985 25.981968,47.145985 15.259537,47.145985 
	C15.259537,60.601700 15.259537,73.665359 15.259537,87.115967 
	C26.250067,87.115967 36.987118,87.115967 47.999889,87.115967 
	C47.999889,97.630119 48.063812,107.757080 47.959064,117.882301 
	C47.929489,120.741386 48.456577,121.488976 51.767117,121.419891 
	C62.035713,121.205605 72.325455,121.622978 82.595665,122.060768 
	C86.565331,122.229988 88.257858,121.310081 88.105759,116.864624 
	C87.766968,106.962837 87.999992,97.041489 87.999992,86.752167 
	C99.718407,86.752167 110.788681,86.752167 121.689697,86.752167 
	C121.689697,73.295387 121.689697,60.230465 121.689697,46.781094 
	C110.313690,46.781094 99.244225,46.781094 87.803978,46.781094 
	C87.803978,35.324982 87.803978,24.260466 87.803978,12.975314 
	C78.783363,12.975314 70.145607,12.975314 60.510056,12.975312 
z"/>
<path fill="#000000" opacity="1.000000" stroke="none" 
	d="
M61.008957,12.975313 
	C70.145607,12.975314 78.783363,12.975314 87.803978,12.975314 
	C87.803978,24.260466 87.803978,35.324982 87.803978,46.781094 
	C99.244225,46.781094 110.313690,46.781094 121.689697,46.781094 
	C121.689697,60.230465 121.689697,73.295387 121.689697,86.752167 
	C110.788681,86.752167 99.718407,86.752167 87.999992,86.752167 
	C87.999992,97.041489 87.766968,106.962837 88.105759,116.864624 
	C88.257858,121.310081 86.565331,122.229988 82.595665,122.060768 
	C72.325455,121.622978 62.035713,121.205605 51.767117,121.419891 
	C48.456577,121.488976 47.929489,120.741386 47.959064,117.882301 
	C48.063812,107.757080 47.999889,97.630119 47.999889,87.115967 
	C36.987118,87.115967 26.250067,87.115967 15.259537,87.115967 
	C15.259537,73.665359 15.259537,60.601700 15.259537,47.145985 
	C25.981968,47.145985 36.719204,47.145985 47.840977,47.145985 
	C47.840977,35.697491 47.840977,24.627512 47.840977,12.975312 
	C52.308456,12.975312 56.409256,12.975312 61.008957,12.975313 
M83.000275,49.319538 
	C83.000275,38.906067 83.000275,28.492598 83.000275,18.350666 
	C72.558746,18.350666 62.818192,18.350666 52.694565,18.350666 
	C52.694565,29.774813 52.694565,40.850346 52.694565,52.307240 
	C41.556583,52.307240 30.814276,52.307240 20.353748,52.307240 
	C20.353748,62.447399 20.353748,72.187813 20.353748,82.311707 
	C31.448009,82.311707 42.190269,82.311707 53.313511,82.311707 
	C53.313511,93.783112 53.313511,104.858482 53.313511,115.643166 
	C63.453770,115.643166 73.194626,115.643166 83.317772,115.643166 
	C83.317772,104.212563 83.317772,93.137794 83.317772,81.680527 
	C94.789185,81.680527 105.864220,81.680527 116.640182,81.680527 
	C116.640182,71.540215 116.640182,61.799141 116.640182,51.999985 
	C106.452339,51.999985 96.623314,52.061783 86.797081,51.924133 
	C85.525299,51.906322 84.267967,50.857597 83.000275,49.319538 
z"/>
<path fill="#FFFFFF" opacity="1.000000" stroke="none" 
	d="
M83.002106,49.802971 
	C84.267967,50.857597 85.525299,51.906322 86.797081,51.924133 
	C96.623314,52.061783 106.452339,51.999985 116.640182,51.999985 
	C116.640182,61.799141 116.640182,71.540215 116.640182,81.680527 
	C105.864220,81.680527 94.789185,81.680527 83.317772,81.680527 
	C83.317772,93.137794 83.317772,104.212563 83.317772,115.643166 
	C73.194626,115.643166 63.453770,115.643166 53.313511,115.643166 
	C53.313511,104.858482 53.313511,93.783112 53.313511,82.311707 
	C42.190269,82.311707 31.448009,82.311707 20.353748,82.311707 
	C20.353748,72.187813 20.353748,62.447399 20.353748,52.307240 
	C30.814276,52.307240 41.556583,52.307240 52.694565,52.307240 
	C52.694565,40.850346 52.694565,29.774813 52.694565,18.350666 
	C62.818192,18.350666 72.558746,18.350666 83.000275,18.350666 
	C83.000275,28.492598 83.000275,38.906067 83.002106,49.802971 
z"/>
</svg>