<svg version="1.1" id="Layer_1" xmlns="http://www.w3.org/2000/svg" xmlns:xlink="http://www.w3.org/1999/xlink" x="0px" y="0px"
	 width="100%" viewBox="0 0 368 368" enable-background="new 0 0 368 368" xml:space="preserve">
<path fill="#000000" opacity="1.000000" stroke="none" 
	d="
M246.350525,335.603577 
	C229.945190,341.710815 216.769958,337.222748 205.288315,323.754791 
	C205.288315,332.605621 205.309723,340.535706 205.282532,348.465607 
	C205.253021,357.069885 202.061951,360.351135 193.629776,360.354553 
	C148.800964,360.372742 103.972145,360.373169 59.143333,360.361969 
	C51.436291,360.360046 49.669960,358.592804 49.627907,351.016388 
	C49.616810,349.017090 49.604988,347.014343 49.704765,345.018707 
	C49.867146,341.771118 51.953991,340.156586 54.890934,340.026733 
	C57.659576,339.904327 59.640999,341.468140 60.195324,344.333496 
	C60.559902,346.218109 60.013157,348.788879 62.885880,348.886871 
	C66.494728,349.009979 70.153740,350.092926 73.709808,348.789551 
	C74.210960,348.605865 74.461113,347.391266 74.586174,346.614960 
	C74.743561,345.638031 74.656616,344.621155 74.668251,343.621399 
	C74.744621,337.062592 76.434326,334.196869 80.243996,334.169495 
	C84.173630,334.141205 86.040199,337.095551 86.254211,343.414795 
	C86.318069,345.300232 85.444054,347.993408 87.936348,348.633179 
	C90.918335,349.398621 94.168602,350.173676 97.225090,348.852966 
	C98.625809,348.247742 98.378380,346.640747 98.387688,345.286865 
	C98.432358,338.789764 98.622902,332.292358 98.577484,325.796387 
	C98.551910,322.138519 99.727386,319.223816 103.615974,319.095734 
	C107.742569,318.959808 109.321419,321.907990 109.333138,325.750519 
	C109.352951,332.249817 109.445122,338.751099 109.314178,345.247650 
	C109.248642,348.499329 110.365883,349.607208 113.737778,349.398041 
	C123.637291,348.783997 123.647011,348.914398 123.646622,339.168671 
	C123.645851,320.003937 123.545868,300.838287 123.718636,281.675140 
	C123.755653,277.568787 122.510994,276.160828 118.329384,276.213135 
	C102.666794,276.409119 87.000130,276.255890 71.335159,276.296783 
	C63.895260,276.316193 60.404667,279.825623 60.352310,287.391541 
	C60.277355,298.223297 60.269772,309.056396 60.361824,319.887848 
	C60.394352,323.715088 59.301811,326.778442 55.098286,326.896301 
	C50.857555,327.015137 49.438992,324.039398 49.630474,320.168091 
	C49.760525,317.538788 49.098789,315.973450 46.033825,315.298126 
	C22.252666,310.058319 11.670164,285.655609 24.090395,264.859985 
	C29.214565,256.280396 34.534370,247.817703 39.758354,239.297653 
	C41.781101,235.998688 44.319008,233.760086 48.373833,235.854645 
	C51.764408,237.606049 52.022072,240.837692 49.336750,245.319138 
	C43.942600,254.321289 38.213886,263.139893 33.194901,272.345886 
	C26.005932,285.532104 33.151146,301.018463 47.414322,303.985809 
	C47.867870,304.080170 48.367432,303.953339 49.142632,303.914886 
	C50.071907,297.949371 49.506336,291.979919 49.602146,286.045258 
	C49.779694,275.047943 54.081352,268.915405 64.493355,265.748749 
	C67.172005,264.934082 67.840744,263.449219 67.835175,261.041046 
	C67.827469,257.709381 67.730576,254.361313 68.017776,251.050262 
	C68.307961,247.704666 70.121552,245.247101 73.742538,245.334915 
	C77.561790,245.427551 79.333916,247.838348 79.328125,251.601089 
	C79.323761,254.434082 79.277534,257.268829 79.362480,260.099457 
	C79.414413,261.830109 78.793251,264.035248 81.361397,264.580627 
	C83.782883,265.094879 85.888977,264.706390 87.465561,262.375916 
	C92.172462,255.418213 92.630020,247.613708 91.489082,239.783035 
	C89.836693,228.442078 87.552299,217.192856 85.504028,205.910568 
	C85.333130,204.969208 85.189995,203.924393 83.805138,203.157425 
	C77.113861,207.709229 72.149063,214.188400 66.979836,220.414627 
	C62.445843,225.875717 59.590611,227.227539 56.404163,224.807434 
	C53.120571,222.313553 53.639503,218.640091 58.204842,213.155640 
	C69.153671,200.002518 80.876091,187.750580 97.195732,181.171906 
	C100.579094,179.808044 104.172081,178.968155 107.654289,177.842926 
	C108.573013,177.546036 109.702621,177.317215 110.281181,176.658310 
	C112.272247,174.390762 110.842697,160.712708 108.416740,158.774414 
	C101.507866,153.254379 95.603622,147.070526 93.932236,137.929855 
	C93.313110,134.543930 90.631020,135.202377 88.408119,135.189407 
	C82.112984,135.152725 76.529282,133.446396 72.450722,128.376984 
	C67.628960,122.383820 66.705261,115.741776 69.891685,108.725319 
	C70.865952,106.579987 70.887505,104.844559 70.004288,102.626862 
	C63.574875,86.482849 64.314178,70.404106 71.170364,54.596973 
	C72.666275,51.148117 72.301262,48.835514 69.494003,46.324425 
	C66.276878,43.446709 63.312084,40.239666 60.537918,36.924446 
	C55.701019,31.144188 57.220818,25.920246 64.246696,23.481607 
	C76.992928,19.057467 89.997849,18.762890 103.167793,21.048698 
	C105.742554,21.495579 108.334106,21.845726 110.870728,22.233278 
	C111.047935,21.538334 111.259506,21.194426 111.184608,20.932415 
	C108.152817,10.327531 111.720573,6.215075 122.715836,7.915894 
	C147.050446,11.680128 167.951874,22.155869 184.916748,40.149952 
	C186.451065,41.777374 188.164108,42.884087 190.209457,43.740986 
	C206.809418,50.695530 212.927933,62.737949 208.915207,80.167366 
	C207.232346,87.476959 205.069397,94.638824 202.566803,101.696709 
	C201.805542,103.843651 201.753540,105.564186 202.778046,107.798676 
	C209.193176,121.790405 200.920303,134.901962 185.494293,135.092987 
	C181.348892,135.144318 179.367676,136.079056 178.564240,140.570755 
	C177.267532,147.820099 172.246796,152.972824 166.523407,157.175110 
	C163.198257,159.616562 162.074173,162.377701 162.141998,166.436081 
	C162.348129,178.770569 162.190628,178.772308 173.413757,183.470062 
	C183.987167,187.895874 194.935944,191.443253 204.082825,198.864853 
	C216.432266,208.884964 222.908234,222.284180 227.397339,237.033844 
	C228.497360,240.648148 229.317337,244.435318 232.079956,248.449707 
	C235.373383,239.493942 238.444458,231.152496 241.507416,222.808060 
	C242.424805,220.308838 243.370300,217.818237 244.213303,215.293762 
	C245.602890,211.132584 248.349960,208.670227 252.700684,207.755859 
	C256.297516,206.999908 258.522552,203.145996 256.816650,199.899811 
	C254.754318,195.975327 254.493301,191.966370 254.659195,187.792557 
	C254.785889,184.605011 253.436630,183.266144 250.210495,183.357925 
	C245.381836,183.495285 240.544647,183.446762 235.713364,183.355927 
	C222.454834,183.106628 213.061844,167.555252 218.999344,155.702393 
	C221.088440,151.531982 224.869675,150.669708 229.095337,150.674805 
	C244.093796,150.692856 259.094635,150.532211 274.089355,150.769104 
	C278.445587,150.837906 280.072632,149.594757 279.797699,145.136032 
	C279.459839,139.657471 279.651062,134.140976 279.747803,128.643250 
	C279.792114,126.123634 278.851929,124.907890 276.382538,123.950836 
	C261.523468,118.192047 254.727859,108.070625 254.709198,92.168365 
	C254.697662,82.336037 254.646561,72.503227 254.724640,62.671513 
	C254.778366,55.906982 257.712708,52.869095 264.500275,52.811424 
	C278.497864,52.692486 292.497711,52.679226 306.495331,52.788399 
	C313.605408,52.843853 316.308289,55.779613 316.334442,63.014866 
	C316.372345,73.513657 316.381622,84.012894 316.330231,94.511589 
	C316.264343,107.964798 308.611542,119.022743 295.844727,123.500648 
	C292.437775,124.695610 291.042755,126.222855 291.232880,129.856201 
	C291.511200,135.174393 291.481903,140.526123 291.241119,145.848053 
	C291.071991,149.586426 292.478485,150.770401 296.156311,150.733902 
	C311.153259,150.585007 326.152679,150.661835 341.151123,150.688080 
	C350.573547,150.704575 353.271973,153.465424 353.274536,162.969086 
	C353.278076,176.301315 346.302887,183.334259 333.026642,183.384109 
	C332.360046,183.386627 331.693146,183.372589 331.026917,183.388794 
	C328.034149,183.461533 324.782257,182.829330 322.114136,183.799652 
	C318.727020,185.031479 320.439758,189.075577 319.476624,191.776245 
	C316.524597,200.053741 309.342102,206.019882 300.410461,206.228516 
	C296.711334,206.314926 295.053009,207.782074 293.971039,211.039062 
	C292.373749,215.847366 289.419037,220.517502 294.455017,225.141800 
	C295.553497,226.150497 295.572388,227.993988 295.278992,229.447876 
	C293.923126,236.166626 291.438934,242.531357 288.365845,248.609879 
	C287.293121,250.731674 284.870605,251.700012 282.287262,250.690506 
	C279.618073,249.647476 278.432098,247.623184 278.715302,244.785400 
	C279.101776,240.912460 281.056763,237.519211 282.151215,233.859619 
	C282.737427,231.899551 283.001160,230.228455 280.677094,229.329834 
	C277.571045,228.128876 274.488098,226.851395 271.328217,225.810104 
	C265.987274,224.050095 260.859375,221.594910 254.565430,220.436646 
	C251.416122,229.050674 248.294388,237.591309 245.171173,246.131409 
	C240.939774,257.701630 236.652954,269.252045 232.506409,280.852570 
	C231.168198,284.596405 229.146866,287.146210 224.826202,286.036865 
	C221.293869,285.129913 219.840958,281.480011 221.995712,276.967285 
	C225.322617,269.999756 224.962021,263.584137 222.048782,256.530304 
	C218.433792,247.777374 216.004425,238.543045 212.690903,229.655350 
	C208.289185,217.848740 200.313080,209.024734 188.571503,202.120743 
	C186.734436,212.137360 184.856277,221.339645 183.413330,230.609680 
	C182.446198,236.822845 180.560104,242.953506 181.278564,249.379852 
	C182.205612,257.672058 185.842621,264.318970 193.071548,269.958984 
	C194.178284,263.772888 193.499588,258.484497 193.667603,253.240829 
	C193.837112,247.949860 195.991272,244.914658 199.782425,245.300522 
	C204.573700,245.788193 205.344650,249.265808 205.304428,253.294525 
	C205.237900,259.959839 205.743530,266.664703 205.189011,273.284271 
	C204.059921,286.762512 206.942307,299.277924 212.335449,311.539062 
	C216.612823,321.263519 223.505478,326.797607 233.024872,326.876953 
	C242.617477,326.956879 250.010040,321.888336 253.820160,311.867004 
	C259.320526,297.400024 264.445251,282.790405 269.755035,268.250702 
	C271.514587,263.432495 274.401306,261.478058 277.791077,263.070862 
	C281.833893,264.970551 281.753876,268.243134 280.390869,271.965179 
	C274.896301,286.969666 269.598511,302.046783 264.029938,317.023376 
	C260.871246,325.518616 255.015244,331.688629 246.350525,335.603577 
M192.637238,348.378510 
	C194.137131,346.871948 193.663452,344.938751 193.668137,343.162872 
	C193.708084,328.001099 193.216110,312.818420 193.877121,297.685364 
	C194.258484,288.954620 191.901474,283.169769 184.649338,277.620209 
	C172.395477,268.243103 167.826599,254.934586 170.481476,239.447113 
	C172.306274,228.802032 174.131668,218.155075 175.762085,207.479233 
	C177.314911,197.311264 177.152924,197.415024 167.589630,193.376877 
	C164.046768,191.880920 162.272659,192.362823 160.866821,196.176773 
	C156.148254,208.977951 151.031998,221.632050 146.243011,234.408051 
	C144.462585,239.157852 141.891174,242.914825 136.412628,242.862915 
	C131.083969,242.812408 128.788940,238.845444 127.089310,234.414612 
	C122.439568,222.292938 117.806396,210.163910 113.019356,198.096222 
	C109.218925,188.515732 107.795311,188.148621 98.436958,192.982910 
	C95.976089,194.254120 95.012863,195.784393 95.576103,198.538177 
	C96.840714,204.721115 98.217789,210.901367 99.044464,217.149490 
	C101.005798,231.973526 106.817307,246.688385 100.574486,261.828766 
	C99.843079,263.602600 101.013474,264.715485 102.886871,264.722931 
	C109.383171,264.748779 115.879738,264.721375 122.376137,264.697510 
	C123.440048,264.693634 124.302254,264.211884 124.921982,263.346252 
	C130.675858,255.309494 138.932175,256.973236 146.814590,257.988037 
	C150.410995,258.451019 153.365540,260.873199 154.491440,264.448761 
	C155.435425,267.446594 157.194870,268.352386 160.076965,269.057892 
	C171.645416,271.889709 178.225616,282.275604 176.632919,294.573364 
	C175.020111,307.026398 166.940659,314.256287 154.445587,314.385620 
	C149.447632,314.437347 144.448151,314.476288 139.450882,314.409058 
	C136.634506,314.371155 135.104477,315.279449 135.142487,318.416199 
	C135.249451,327.245270 135.231842,336.076630 135.169540,344.906433 
	C135.148499,347.885559 136.492874,349.115204 139.398148,349.093414 
	C156.883423,348.962311 174.369034,348.874695 192.637238,348.378510 
M85.774734,47.154331 
	C86.696823,49.241291 85.864929,51.075516 84.871758,52.835182 
	C82.410172,57.196503 80.231796,61.664158 78.998039,66.555969 
	C76.545967,76.278397 76.399658,85.941093 79.505669,95.566231 
	C81.124268,100.582069 85.270638,98.134964 88.392601,98.583817 
	C91.043266,98.964920 91.776886,97.246384 91.919197,94.923386 
	C92.215225,90.091354 95.734230,88.660622 99.712814,87.928314 
	C116.356720,84.864845 130.790588,77.382401 143.413086,66.230453 
	C145.407455,64.468437 147.343536,62.626179 150.312973,62.656178 
	C155.806839,62.711689 161.310059,62.491192 166.793747,62.735897 
	C173.353271,63.028614 178.027267,67.119095 179.379120,73.512421 
	C180.759674,80.041412 180.724777,86.720131 181.216736,93.342751 
	C181.376389,95.492043 180.434647,98.573318 184.115509,98.526306 
	C187.307892,98.485527 191.375000,100.287674 192.799500,95.204681 
	C194.502396,89.128334 196.423080,83.128860 197.884537,76.966934 
	C200.570221,65.643311 197.227524,58.885712 184.572510,54.013794 
	C181.147873,52.695377 178.746765,50.671047 176.330795,47.994183 
	C162.609909,32.791557 145.227524,24.150898 124.725731,19.670652 
	C125.421173,21.469500 125.753426,22.552570 126.244270,23.558229 
	C127.986862,27.128519 129.396530,30.749159 126.239296,34.220852 
	C122.983841,37.800556 119.059921,36.744061 115.128471,35.532833 
	C108.758202,33.570248 102.246307,32.047325 95.610115,31.624409 
	C88.313301,31.159391 80.896179,30.450825 73.108299,33.270267 
	C77.532593,38.024605 81.468590,42.254227 85.774734,47.154331 
M136.288773,85.891289 
	C127.242149,91.334076 117.651848,95.572571 107.380539,97.986595 
	C103.923599,98.799065 103.284470,100.523415 103.307831,103.568741 
	C103.372978,112.059586 103.619659,120.527061 104.154312,129.011856 
	C105.061188,143.403915 122.993896,159.785553 137.525894,158.895187 
	C139.326843,158.784836 141.173401,158.384064 142.868713,157.762848 
	C150.309097,155.036484 156.864120,150.869308 162.643280,145.427444 
	C166.370377,141.917847 168.164719,137.533112 168.627380,132.607620 
	C170.313049,114.662407 170.141190,96.708466 168.771988,78.744873 
	C168.535126,75.637215 167.199783,74.214638 164.197937,74.041023 
	C157.312485,73.642807 150.665161,73.485046 145.373947,79.364731 
	C143.095367,81.896721 139.753723,83.472038 136.288773,85.891289 
M313.500000,171.905594 
	C319.821869,171.902512 326.143890,171.918350 332.465546,171.882431 
	C333.957153,171.873962 335.517303,171.937363 336.924805,171.539368 
	C340.226410,170.605835 341.885406,168.224564 341.597565,164.811493 
	C341.286926,161.127960 338.244995,162.346497 336.170624,162.210770 
	C333.188690,162.015656 330.184723,162.156189 327.190155,162.155777 
	C296.246277,162.151474 265.302399,162.138000 234.358551,162.169281 
	C232.630035,162.171036 230.353745,161.526398 229.593552,163.811920 
	C228.795029,166.212677 229.698059,168.374573 231.571701,170.107651 
	C233.765503,172.136826 236.490509,171.874222 239.133011,171.876602 
	C263.588654,171.898697 288.044342,171.898605 313.500000,171.905594 
M307.518860,183.714569 
	C294.734070,183.608475 281.949036,183.522217 269.164642,183.380707 
	C266.366669,183.349762 265.373322,184.709091 265.346497,187.369751 
	C265.318695,190.124329 265.585510,192.663406 267.755737,194.668182 
	C270.260956,196.982422 270.485229,199.662674 269.402100,202.846909 
	C268.412323,205.756683 266.531372,208.511185 267.128845,212.040939 
	C267.848236,212.365555 268.562592,212.773636 269.328827,213.020889 
	C281.692841,217.010178 278.757721,218.698441 283.552521,206.511887 
	C287.607819,196.204712 285.714813,194.925812 298.736542,194.997986 
	C299.725006,195.003448 300.742279,194.883774 301.699341,194.639069 
	C306.665924,193.369202 309.064819,189.446030 307.518860,183.714569 
M141.945801,269.308319 
	C138.941498,269.233521 135.173065,267.800018 135.170517,273.090668 
	C135.166336,281.754547 135.197601,290.418579 135.155228,299.082245 
	C135.141815,301.827209 136.414047,302.993073 139.111572,302.965973 
	C144.109436,302.915771 149.109787,303.045349 154.106400,302.953766 
	C161.596313,302.816467 164.939606,299.325348 165.026581,291.748749 
	C165.117310,283.845093 161.835800,280.341858 154.085510,280.068451 
	C145.760239,279.774750 145.427795,279.480072 143.664413,271.288910 
	C143.535263,270.688995 143.026642,270.170837 141.945801,269.308319 
M122.338554,171.205399 
	C122.035881,176.337036 122.810089,181.482132 121.656151,186.629700 
	C121.097771,189.120560 122.280762,191.451035 124.798393,192.863098 
	C132.379776,197.115311 139.982162,197.085281 147.747040,193.361404 
	C150.153473,192.207352 151.806946,190.097656 151.422974,187.905212 
	C150.278076,181.367981 151.133331,174.724442 150.367493,167.799347 
	C145.651642,168.538727 141.721680,170.498398 137.309998,170.521317 
	C132.852585,170.544479 128.786850,169.273560 124.621933,168.150818 
	C122.622726,167.611877 122.400238,168.937912 122.338554,171.205399 
M300.175964,64.338341 
	C293.362427,64.335823 286.545746,64.198593 279.735992,64.357750 
	C263.643555,64.733856 266.598633,61.049023 266.281525,78.486809 
	C266.278534,78.652847 266.296814,78.819588 266.288574,78.985176 
	C266.167419,81.421722 267.155029,82.676010 269.764526,82.663719 
	C280.233795,82.614388 290.703705,82.609062 301.172760,82.680084 
	C304.020111,82.699402 305.608673,81.151649 304.802185,78.737419 
	C303.222321,74.008263 309.169922,67.312447 300.175964,64.338341 
M272.005707,108.511909 
	C282.834595,118.767235 299.740051,113.800224 304.057648,100.563309 
	C305.709564,95.498871 304.889069,94.144478 299.641113,94.092537 
	C291.654572,94.013481 283.663666,93.944237 275.680817,94.133148 
	C272.674286,94.204292 268.466766,92.432648 266.917358,95.559158 
	C265.130615,99.164566 267.757874,102.859764 269.916840,106.065849 
	C270.379089,106.752289 270.966156,107.354668 272.005707,108.511909 
M191.059769,111.358665 
	C182.777603,107.548630 181.264725,108.479790 181.247025,117.398140 
	C181.246704,117.563240 181.243622,117.728355 181.244110,117.893448 
	C181.260895,123.565231 183.077911,124.898956 188.495178,123.216164 
	C193.733994,121.588799 194.971786,117.102493 191.059769,111.358665 
M90.813293,123.138969 
	C92.907021,118.843895 91.442551,114.482246 91.602203,109.938141 
	C89.945915,109.777168 88.805595,109.542427 87.673744,109.577927 
	C82.917824,109.727074 79.506813,112.690063 79.453880,116.622719 
	C79.400391,120.595970 82.577415,123.347855 87.594269,123.623039 
	C88.419037,123.668282 89.253647,123.534233 90.813293,123.138969 
M135.215225,223.692612 
	C135.492783,224.455200 135.712769,225.265915 137.201187,225.561310 
	C139.455414,219.759995 141.738602,213.884125 144.419540,206.984604 
	C138.949310,208.548813 134.410690,207.204117 129.547318,207.671295 
	C130.750275,213.450562 133.211594,218.149414 135.215225,223.692612 
z"/>
</svg>